<mxfile host="65bd71144e" modified="2020-10-08T03:41:45.840Z" agent="5.0 (Windows NT 10.0; Win64; x64) AppleWebKit/537.36 (KHTML, like Gecko) Code/1.49.3 Chrome/83.0.4103.122 Electron/9.2.1 Safari/537.36" etag="sytTYImZMRNGx-1IfbdT" version="13.6.5">
    <diagram id="6hGFLwfOUW9BJ-s0fimq" name="Page-1">
        <mxGraphModel dx="765" dy="432" grid="1" gridSize="10" guides="1" tooltips="1" connect="1" arrows="1" fold="1" page="1" pageScale="1" pageWidth="827" pageHeight="1169" math="0" shadow="0">
            <root>
                <mxCell id="0"/>
                <mxCell id="1" parent="0"/>
                <mxCell id="32" style="edgeStyle=orthogonalEdgeStyle;rounded=0;orthogonalLoop=1;jettySize=auto;html=1;exitX=1;exitY=0.5;exitDx=0;exitDy=0;entryX=0;entryY=0.5;entryDx=0;entryDy=0;" parent="1" source="3" target="7" edge="1">
                    <mxGeometry relative="1" as="geometry"/>
                </mxCell>
                <mxCell id="3" value="" style="shape=image;imageAspect=0;aspect=fixed;verticalLabelPosition=bottom;verticalAlign=top;image=data:image/svg+xml,PHN2ZyB4bWxucz0iaHR0cDovL3d3dy53My5vcmcvMjAwMC9zdmciIGlkPSJiNzBhY2YwYS0zNGI0LTRiZGYtOTAyNC03NDk2MDQzZmY5MTUiIHdpZHRoPSIxOCIgaGVpZ2h0PSIxOCIgdmlld0JveD0iMCAwIDE4IDE4Ij4mI3hhOyAgICA8ZGVmcz4mI3hhOyAgICAgICAgPHJhZGlhbEdyYWRpZW50IGlkPSJlMmNmODc0Ni1jOWE4LTRlZWUtODZjMi00OTUxOTgzYzYwMzIiIGN4PSIxMzQyOC44MSIgY3k9IjM1MTguODYiIHI9IjU2LjY3IiBncmFkaWVudFRyYW5zZm9ybT0idHJhbnNsYXRlKC0yMDA1LjMzIC01MTguODMpIHNjYWxlKDAuMTUpIiBncmFkaWVudFVuaXRzPSJ1c2VyU3BhY2VPblVzZSI+JiN4YTsgICAgICAgICAgICA8c3RvcCBvZmZzZXQ9IjAuMTgiIHN0b3AtY29sb3I9IiM1ZWEwZWYiLz4mI3hhOyAgICAgICAgICAgIDxzdG9wIG9mZnNldD0iMSIgc3RvcC1jb2xvcj0iIzAwNzhkNCIvPiYjeGE7ICAgICAgICA8L3JhZGlhbEdyYWRpZW50PiYjeGE7ICAgICAgICA8bGluZWFyR3JhZGllbnQgaWQ9ImJkZDIxM2RkLWQzMTMtNDczYy04ZmY0LTAxMzNmZDNhOTAzMyIgeDE9IjQuNCIgeTE9IjExLjQ4IiB4Mj0iNC4zNyIgeTI9IjcuNTMiIGdyYWRpZW50VW5pdHM9InVzZXJTcGFjZU9uVXNlIj4mI3hhOyAgICAgICAgICAgIDxzdG9wIG9mZnNldD0iMCIgc3RvcC1jb2xvcj0iI2NjYyIvPiYjeGE7ICAgICAgICAgICAgPHN0b3Agb2Zmc2V0PSIxIiBzdG9wLWNvbG9yPSIjZmNmY2ZjIi8+JiN4YTsgICAgICAgIDwvbGluZWFyR3JhZGllbnQ+JiN4YTsgICAgICAgIDxsaW5lYXJHcmFkaWVudCBpZD0iYWZjYzYzYzUtMzY0OS00NDc2LWE3NDItYmNiNTNhNTY5ZjNjIiB4MT0iMTAuMTMiIHkxPSIxNS40NSIgeDI9IjEwLjEzIiB5Mj0iMTEuOSIgZ3JhZGllbnRVbml0cz0idXNlclNwYWNlT25Vc2UiPiYjeGE7ICAgICAgICAgICAgICAgICAgICA8c3RvcCBvZmZzZXQ9IjAiIHN0b3AtY29sb3I9IiNjY2MiLz4mI3hhOyAgICAgICAgICAgIDxzdG9wIG9mZnNldD0iMSIgc3RvcC1jb2xvcj0iI2ZjZmNmYyIvPiYjeGE7ICAgICAgICA8L2xpbmVhckdyYWRpZW50PiYjeGE7ICAgICAgICA8bGluZWFyR3JhZGllbnQgaWQ9ImJkODczZjBiLTk5NTQtNGFhNS1hM2RmLTlmNGM2NGU4NzI5ZCIgeDE9IjE0LjE4IiB5MT0iMTEuMTUiIHgyPSIxNC4xOCIgeTI9IjcuMzgiIGdyYWRpZW50VW5pdHM9InVzZXJTcGFjZU9uVXNlIj4mI3hhOyAgICAgICAgICAgICAgICAgICAgPHN0b3Agb2Zmc2V0PSIwIiBzdG9wLWNvbG9yPSIjY2NjIi8+JiN4YTsgICAgICAgICAgICA8c3RvcCBvZmZzZXQ9IjEiIHN0b3AtY29sb3I9IiNmY2ZjZmMiLz4mI3hhOyAgICAgICAgPC9saW5lYXJHcmFkaWVudD4mI3hhOyAgICA8L2RlZnM+JiN4YTsgICAgPHRpdGxlPkljb24td2ViLTQxPC90aXRsZT4mI3hhOyAgICA8cGF0aCBpZD0iZWU3NWRkMDYtMWFjYS00Zjc2LTlkMTEtZDA1YTI4NDAyMGFkIiBkPSJNMTQuMjEsMTUuNzJBOC41LDguNSwwLDAsMSwzLjc5LDIuMjhsLjA5LS4wNmE4LjUsOC41LDAsMCwxLDEwLjMzLDEzLjUiIGZpbGw9InVybCgjZTJjZjg3NDYtYzlhOC00ZWVlLTg2YzItNDk1MTk4M2M2MDMyKSIvPiYjeGE7ICAgIDxwYXRoIGQ9Ik02LjY5LDcuMjNBMTMsMTMsMCwwLDEsMTUuNiwzLjY1YTguNDcsOC40NywwLDAsMC0xLjQ5LTEuNDQsMTQuMzQsMTQuMzQsMCwwLDAtNC42OSwxLjFBMTIuNTQsMTIuNTQsMCwwLDAsNS4zNCw2LjEzLDIuNzYsMi43NiwwLDAsMSw2LjY5LDcuMjNaIiBmaWxsPSIjZmZmIiBvcGFjaXR5PSIwLjYiLz4mI3hhOyAgICA8cGF0aCBkPSJNMi40OCwxMC42NWExNy44NiwxNy44NiwwLDAsMC0uODMsMi42Miw3LjgyLDcuODIsMCwwLDAsLjYyLjkyYy4xOC4yMy4zNS40NC41NS42NUExNy45NCwxNy45NCwwLDAsMSwzLjksMTEuMzcsMi43NiwyLjc2LDAsMCwxLDIuNDgsMTAuNjVaIiBmaWxsPSIjZmZmIiBvcGFjaXR5PSIwLjYiLz4mI3hhOyAgICA8cGF0aCBkPSJNMy40Niw2LjExYTEyLDEyLDAsMCwxLS42OS0yLjk0LDguMTUsOC4xNSwwLDAsMC0xLjEsMS40NUExMi42OSwxMi42OSwwLDAsMCwyLjI0LDcsMi42OSwyLjY5LDAsMCwxLDMuNDYsNi4xMVoiIGZpbGw9IiNmMmYyZjIiIG9wYWNpdHk9IjAuNTUiLz4mI3hhOyAgICA8Y2lyY2xlIGN4PSI0LjM4IiBjeT0iOC42OCIgcj0iMi43MyIgZmlsbD0idXJsKCNiZGQyMTNkZC1kMzEzLTQ3M2MtOGZmNC0wMTMzZmQzYTkwMzMpIi8+JiN4YTsgICAgPHBhdGggZD0iTTguMzYsMTMuNjdBMS43NywxLjc3LDAsMCwxLDguOSwxMi40YTExLjg4LDExLjg4LDAsMCwxLTIuNTMtMS44NiwyLjc0LDIuNzQsMCwwLDEtMS40OS44MywxMy4xLDEzLjEsMCwwLDAsMS40NSwxLjI4QTEyLjEyLDEyLjEyLDAsMCwwLDguMzgsMTMuOSwxLjc5LDEuNzksMCwwLDEsOC4zNiwxMy42N1oiIGZpbGw9IiNmMmYyZjIiIG9wYWNpdHk9IjAuNTUiLz4mI3hhOyAgICA8cGF0aCBkPSJNMTQuNjYsMTMuODhhMTIsMTIsMCwwLDEtMi43Ni0uMzIuNDEuNDEsMCwwLDEsMCwuMTEsMS43NSwxLjc1LDAsMCwxLS41MSwxLjI0LDEzLjY5LDEzLjY5LDAsMCwwLDMuNDIuMjRBOC4yMSw4LjIxLDAsMCwwLDE2LDEzLjgxLDExLjUsMTEuNSwwLDAsMSwxNC42NiwxMy44OFoiIGZpbGw9IiNmMmYyZjIiIG9wYWNpdHk9IjAuNTUiLz4mI3hhOyAgICA8Y2lyY2xlIGN4PSIxMC4xMyIgY3k9IjEzLjY3IiByPSIxLjc4IiBmaWxsPSJ1cmwoI2FmY2M2M2M1LTM2NDktNDQ3Ni1hNzQyLWJjYjUzYTU2OWYzYykiLz4mI3hhOyAgICA8cGF0aCBkPSJNMTIuMzIsOC45M2ExLjgzLDEuODMsMCwwLDEsLjYxLTFBMjUuNSwyNS41LDAsMCwxLDguNDcsMy43OWExNi45MSwxNi45MSwwLDAsMS0yLTIuOTIsNy42NCw3LjY0LDAsMCwwLTEuMDkuNDJBMTguMTQsMTguMTQsMCwwLDAsNy41Myw0LjQ3LDI2LjQ0LDI2LjQ0LDAsMCwwLDEyLjMyLDguOTNaIiBmaWxsPSIjZjJmMmYyIiBvcGFjaXR5PSIwLjciLz4mI3hhOyAgICA8Y2lyY2xlIGN4PSIxNC4xOCIgY3k9IjkuMjciIHI9IjEuODkiIGZpbGw9InVybCgjYmQ4NzNmMGItOTk1NC00YWE1LWEzZGYtOWY0YzY0ZTg3MjlkKSIvPiYjeGE7ICAgIDxwYXRoIGQ9Ik0xNy4zNSwxMC41NCwxNywxMC4zN2wwLDAtLjMtLjE2LS4wNiwwTDE2LjM4LDEwbC0uMDcsMEwxNiw5LjhhMS43NiwxLjc2LDAsMCwxLS42NC45MmMuMTIuMDguMjUuMTUuMzguMjJsLjA4LjA1LjM1LjE5LDAsMCwuODYuNDVoMGE4LjYzLDguNjMsMCwwLDAsLjI5LTEuMTFaIiBmaWxsPSIjZjJmMmYyIiBvcGFjaXR5PSIwLjU1Ii8+JiN4YTsgICAgPGNpcmNsZSBjeD0iNC4zOCIgY3k9IjguNjgiIHI9IjIuNzMiIGZpbGw9InVybCgjYmRkMjEzZGQtZDMxMy00NzNjLThmZjQtMDEzM2ZkM2E5MDMzKSIvPiYjeGE7ICAgIDxjaXJjbGUgY3g9IjEwLjEzIiBjeT0iMTMuNjciIHI9IjEuNzgiIGZpbGw9InVybCgjYWZjYzYzYzUtMzY0OS00NDc2LWE3NDItYmNiNTNhNTY5ZjNjKSIvPiYjeGE7PG1ldGFkYXRhPiYjeGE7ICAgPHJkZjpSREYgeG1sbnM6cmRmPSJodHRwOi8vd3d3LnczLm9yZy8xOTk5LzAyLzIyLXJkZi1zeW50YXgtbnMjIj4mI3hhOyAgICAgIDxyZGY6bGk+cHVibGljOnRydWU8L3JkZjpsaT4mI3hhOyAgICAgIDxyZGY6bGk+c2RrOk1zUG9ydGFsRnguQmFzZS5JbWFnZXMuUG9seWNocm9tYXRpYy5XZWJzaXRlKCk8L3JkZjpsaT4mI3hhOyAgICAgIDxyZGY6bGk+Y2F0ZWdvcnk6IENvbXB1dGUsIENvbnRhaW5lcnMsIEFwcCBTZXJ2aWNlczwvcmRmOmxpPiYjeGE7ICAgPC9yZGY6UkRGPiYjeGE7PC9tZXRhZGF0YT4mI3hhOzwvc3ZnPg==;" parent="1" vertex="1">
                    <mxGeometry x="290" y="115" width="50" height="50" as="geometry"/>
                </mxCell>
                <mxCell id="17" style="edgeStyle=orthogonalEdgeStyle;rounded=0;orthogonalLoop=1;jettySize=auto;html=1;exitX=0.5;exitY=0;exitDx=0;exitDy=0;" parent="1" source="4" edge="1">
                    <mxGeometry relative="1" as="geometry">
                        <mxPoint x="315" y="195" as="targetPoint"/>
                    </mxGeometry>
                </mxCell>
                <mxCell id="4" value="" style="shape=image;imageAspect=0;aspect=fixed;verticalLabelPosition=bottom;verticalAlign=top;image=data:image/svg+xml,PHN2ZyB4bWxucz0iaHR0cDovL3d3dy53My5vcmcvMjAwMC9zdmciIGlkPSJlOWY3YmE3My01NmI4LTQ4NjQtOTZmZi1kY2U4MGJlZjcyOWEiIHdpZHRoPSIxOCIgaGVpZ2h0PSIxOCIgdmlld0JveD0iMCAwIDE4IDE4Ij4mI3hhOyAgPGRlZnM+JiN4YTsgICAgPGxpbmVhckdyYWRpZW50IGlkPSJiZGYyN2RjNi0wMjVjLTQ4MDUtOGJmZC0zYTA1ZGVmZDNmYmQiIHgxPSI4LjYzNyIgeTE9Ii0xLjk5MSIgeDI9IjguNjM3IiB5Mj0iMTYuNzM5IiBncmFkaWVudFVuaXRzPSJ1c2VyU3BhY2VPblVzZSI+JiN4YTsgICAgICA8c3RvcCBvZmZzZXQ9IjAiIHN0b3AtY29sb3I9IiM1ZWEwZWYiLz4mI3hhOyAgICAgIDxzdG9wIG9mZnNldD0iMSIgc3RvcC1jb2xvcj0iIzAwNzhkNCIvPiYjeGE7ICAgIDwvbGluZWFyR3JhZGllbnQ+JiN4YTsgICAgPGxpbmVhckdyYWRpZW50IGlkPSJmY2Q2YzZjNy1lMmViLTRhMzItYjkxNC0zYTg0ODU1ODVhMWIiIHgxPSIxMi45NiIgeTE9IjguNTYxIiB4Mj0iMTIuOTYiIHkyPSI2LjE0MSIgZ3JhZGllbnRUcmFuc2Zvcm09Im1hdHJpeCgxLCAwLCAwLCAtMSwgMCwgMjApIiBncmFkaWVudFVuaXRzPSJ1c2VyU3BhY2VPblVzZSI+JiN4YTsgICAgICA8c3RvcCBvZmZzZXQ9IjAiIHN0b3AtY29sb3I9IiMzMzMxMzIiLz4mI3hhOyAgICAgIDxzdG9wIG9mZnNldD0iMSIgc3RvcC1jb2xvcj0iIzViNWE1YyIvPiYjeGE7ICAgIDwvbGluZWFyR3JhZGllbnQ+JiN4YTsgIDwvZGVmcz4mI3hhOyAgPHBhdGggZD0iTTcuNDMsOC4xNzhsMi41ODktMS41NzMsNy4yNTUsMi43MzFBMy42NjQsMy42NjQsMCwwLDAsMTYuMjMsNy40OWwtLjAxLS4wNUE0LjE5NCw0LjE5NCwwLDAsMCwxNCw2LjMyYTQuOTEsNC45MSwwLDAsMC01LjEtNC43QTUuMDcxLDUuMDcxLDAsMCwwLDQuMDYsNC45MSw0LjYyMSw0LjYyMSwwLDAsMCwwLDkuMzlhNC43Myw0LjczLDAsMCwwLDQuODksNC41NEg3LjQzWiIgZmlsbD0idXJsKCNiZGYyN2RjNi0wMjVjLTQ4MDUtOGJmZC0zYTA1ZGVmZDNmYmQpIi8+JiN4YTsgIDxwb2x5Z29uIHBvaW50cz0iMTAuMDcgNy4xNTkgMTAuMDggMTEuNDM5IDE3Ljk5IDEzLjExOSAxNy45OSAxMC4xMzkgMTAuMDcgNy4xNTkiIGZpbGw9IiM3Njc2NzYiLz4mI3hhOyAgPHBvbHlsaW5lIHBvaW50cz0iMTAuMDcgNy4xNTkgNy45MyA4LjQ1OSA3LjkzIDEyLjQzOSAxMC4wOCAxMS40MzkiIGZpbGw9IiM5OTkiLz4mI3hhOyAgPHBvbHlnb24gcG9pbnRzPSIxMy42OCAxMS40OTkgMTQuNCAxMS42OTkgMTQuNCA5LjM2OSAxMy42OCA5LjExOSAxMy42OCAxMS40OTkiIGZpbGw9IiNhM2EzYTMiLz4mI3hhOyAgPHBvbHlnb24gcG9pbnRzPSIxMi45NiA4Ljg4OSAxMi4yNCA4LjYyOSAxMi4yNCAxMS4xMTkgMTIuOTYgMTEuMzE5IDEyLjk2IDguODg5IiBmaWxsPSIjYTNhM2EzIi8+JiN4YTsgIDxwb2x5Z29uIHBvaW50cz0iMTUuMTIgMTEuODg5IDE1LjgyIDEyLjA3OSAxNS44NCA5Ljg1OSAxNS4xMiA5LjYxOSAxNS4xMiAxMS44ODkiIGZpbGw9IiNhM2EzYTMiLz4mI3hhOyAgPHBvbHlnb24gcG9pbnRzPSIxMC44MSAxMC43NDkgMTEuNTMgMTAuOTI5IDExLjUzIDguMzk5IDEwLjgxIDguMTU5IDEwLjgxIDEwLjc0OSIgZmlsbD0iI2EzYTNhMyIvPiYjeGE7ICA8cG9seWdvbiBwb2ludHM9IjE3LjI3IDEwLjM0OSAxNi41NSAxMC4wOTkgMTYuNTUgMTIuMjY5IDE3LjI3IDEyLjQ2OSAxNy4yNyAxMC4zNDkiIGZpbGw9IiNhM2EzYTMiLz4mI3hhOyAgPHBhdGggaWQ9ImVmMGQxYjU0LWExZTctNGNiOS1hNGU1LThhODUxOGU3YzEyNyIgZD0iTTguNjYsMTEuMzY5bC0uMzYuMjFWOC43NDlsLjM2LS4xOVptLjcxLTMuMjJMOSw4LjM4OXYyLjc1bC4zNy0uMloiIGZpbGw9IiNiM2IzYjMiLz4mI3hhOyAgPHBvbHlnb24gcG9pbnRzPSIxNy45OSAxMy4xMTkgMTUuODMgMTMuODU5IDcuOTMgMTIuNDM5IDEwLjA4IDExLjQzOSAxNy45OSAxMy4xMTkiIGZpbGw9InVybCgjZmNkNmM2YzctZTJlYi00YTMyLWI5MTQtM2E4NDg1NTg1YTFiKSIvPiYjeGE7ICA8cG9seWdvbiBwb2ludHM9IjE3Ljk5IDE2LjE2OSAxMC4wNCAxNy42NzkgMTAuMDggMTIuMDg5IDE3Ljk5IDEzLjU1OSAxNy45OSAxNi4xNjkiIGZpbGw9IiM3Njc2NzYiLz4mI3hhOyAgPHBvbHlnb24gcG9pbnRzPSIxMC44MSAxNi43NTkgMTAuODEgMTMuMjA5IDExLjUzIDEzLjI5OSAxMS41MyAxNi42MzkgMTAuODEgMTYuNzU5IiBmaWxsPSIjYTNhM2EzIi8+JiN4YTsgIDxwb2x5Z29uIHBvaW50cz0iMTIuOTYgMTYuMzk5IDEyLjI0IDE2LjUyOSAxMi4yNCAxMy4zODkgMTIuOTYgMTMuNDk5IDEyLjk2IDE2LjM5OSAxMi45NiAxNi4zOTkiIGZpbGw9IiNhM2EzYTMiLz4mI3hhOyAgPHBvbHlnb24gcG9pbnRzPSIxMy42OCAxNi4yODkgMTMuNjggMTMuNTY5IDE0LjQgMTMuNjU5IDE0LjQgMTYuMTU5IDEzLjY4IDE2LjI4OSIgZmlsbD0iI2EzYTNhMyIvPiYjeGE7ICA8cG9seWdvbiBwb2ludHM9IjE1LjgzIDE1LjkwOSAxNS4xMiAxNi4wMzkgMTUuMTIgMTMuNzQ5IDE1LjgzIDEzLjg1OSAxNS44MyAxNS45MDkiIGZpbGw9IiNhM2EzYTMiLz4mI3hhOyAgPHBvbHlnb24gcG9pbnRzPSIxNy4yOSAxNS42NzkgMTYuNTUgMTUuODA5IDE2LjU1IDEzLjkyOSAxNy4yNCAxNC4wMTkgMTcuMjkgMTUuNjc5IiBmaWxsPSIjYTNhM2EzIi8+JiN4YTsgIDxwYXRoIGlkPSJiOWYyNWViNC00Yzg4LTQ1YzItYmM0ZC1mOTkyNzU3ZDdlMGUiIGQ9Ik03LjkzLDE2LjR2LTMuMjZsMi4xNi0xdjUuNloiIGZpbGw9IiM5OTkiLz4mI3hhOyAgPHBhdGggaWQ9ImViOTIwMGE3LTQ2OTMtNDQyNy1iZGFlLWIzM2NlOTBmZjdmMiIgZD0iTTguNjEsMTYuMzg5bC0uMzItLjE2di0yLjc2bC4zMi0uMTVabS43Ny0zLjQ1LS4zOC4xOXYzLjQ4bC4zNy4xOXYtMy44NloiIGZpbGw9IiNiM2IzYjMiLz4mI3hhOzxtZXRhZGF0YT4mI3hhOyAgIDxyZGY6UkRGIHhtbG5zOnJkZj0iaHR0cDovL3d3dy53My5vcmcvMTk5OS8wMi8yMi1yZGYtc3ludGF4LW5zIyI+JiN4YTsgICAgICA8cmRmOmxpPnB1YmxpYzp0cnVlPC9yZGY6bGk+JiN4YTsgICAgICA8cmRmOmxpPnNkazpmYWxzZTwvcmRmOmxpPiYjeGE7ICAgICAgPHJkZjpsaT5jYXRlZ29yeTogQ29udGFpbmVyczwvcmRmOmxpPiYjeGE7ICAgPC9yZGY6UkRGPiYjeGE7PC9tZXRhZGF0YT4mI3hhOzwvc3ZnPg==;" parent="1" vertex="1">
                    <mxGeometry x="290" y="225" width="50" height="50" as="geometry"/>
                </mxCell>
                <mxCell id="5" value="" style="shape=image;verticalLabelPosition=bottom;labelBackgroundColor=#ffffff;verticalAlign=top;aspect=fixed;imageAspect=0;image=data:image/svg+xml,PHN2ZyB4bWxucz0iaHR0cDovL3d3dy53My5vcmcvMjAwMC9zdmciIGlkPSJiMDg5Y2ZjYS0wZGUxLTQ1MWMtYTFjYS02NjgwZWE1MGNiNGYiIHdpZHRoPSIxOCIgaGVpZ2h0PSIxOCIgdmlld0JveD0iMCAwIDE4IDE4Ij4mI3hhOyAgPGRlZnM+JiN4YTsgICAgPHJhZGlhbEdyYWRpZW50IGlkPSJiMjVkMDgzNi05NjRhLTRjODQtOGMyMC04NTVmNjZlODM0NWUiIGN4PSItMTA1LjAwNiIgY3k9Ii0xMC40MDkiIHI9IjUuOTU0IiBncmFkaWVudFRyYW5zZm9ybT0idHJhbnNsYXRlKDExNy43MzkgMTkuNjQ0KSBzY2FsZSgxLjAzNiAxLjAyNykiIGdyYWRpZW50VW5pdHM9InVzZXJTcGFjZU9uVXNlIj4mI3hhOyAgICAgIDxzdG9wIG9mZnNldD0iMC4xODMiIHN0b3AtY29sb3I9IiM1ZWEwZWYiLz4mI3hhOyAgICAgIDxzdG9wIG9mZnNldD0iMSIgc3RvcC1jb2xvcj0iIzAwNzhkNCIvPiYjeGE7ICAgIDwvcmFkaWFsR3JhZGllbnQ+JiN4YTsgICAgPGNsaXBQYXRoIGlkPSJiMzZjN2Y1ZC0yZWYxLTQ3NjAtOGEyNS1lZWI5NjYxZjRlNDciPiYjeGE7ICAgICAgPHBhdGggZD0iTTE0Ljk2OSw3LjUzQTYuMTM3LDYuMTM3LDAsMSwxLDcuNTc0LDIuOTg3LDYuMTM3LDYuMTM3LDAsMCwxLDE0Ljk2OSw3LjUzWiIgZmlsbD0ibm9uZSIvPiYjeGE7ICAgIDwvY2xpcFBhdGg+JiN4YTsgIDwvZGVmcz4mI3hhOyAgPHRpdGxlPkljb24tZGF0YWJhc2VzLTEyMTwvdGl0bGU+JiN4YTsgIDxwYXRoIGQ9Ik0yLjk1NCw1LjI2NmEuMTc1LjE3NSwwLDAsMS0uMTc2LS4xNzZoMEEyLjAxMiwyLjAxMiwwLDAsMCwuNzY5LDMuMDgxYS4xNzYuMTc2LDAsMCwxLS4xNzYtLjE3NWgwYS4xNzYuMTc2LDAsMCwxLC4xNzYtLjE3NkEyLjAxMiwyLjAxMiwwLDAsMCwyLjc3OC43Mi4xNzUuMTc1LDAsMCwxLDIuOTU0LjU0NGgwQS4xNzUuMTc1LDAsMCwxLDMuMTMuNzJoMEEyLjAxMiwyLjAxMiwwLDAsMCw1LjEzOSwyLjcyOWEuMTc1LjE3NSwwLDAsMSwuMTc2LjE3NmgwYS4xNzUuMTc1LDAsMCwxLS4xNzYuMTc2aDBBMi4wMTEsMi4wMTEsMCwwLDAsMy4xMyw1LjA5LjE3Ny4xNzcsMCwwLDEsMi45NTQsNS4yNjZaIiBmaWxsPSIjNTBlNmZmIi8+JiN4YTsgIDxwYXRoIGQ9Ik0xNS42MTEsMTcuNDU2YS4xNDEuMTQxLDAsMCwxLS4xNDEtLjE0MWgwYTEuNjA5LDEuNjA5LDAsMCwwLTEuNjA3LTEuNjA3LjE0MS4xNDEsMCwwLDEtLjE0MS0uMTRoMGEuMTQxLjE0MSwwLDAsMSwuMTQxLS4xNDFoMGExLjYwOCwxLjYwOCwwLDAsMCwxLjYwNy0xLjYwNy4xNDEuMTQxLDAsMCwxLC4xNDEtLjE0MWgwYS4xNDEuMTQxLDAsMCwxLC4xNDEuMTQxaDBhMS42MDgsMS42MDgsMCwwLDAsMS42MDcsMS42MDcuMTQxLjE0MSwwLDEsMSwwLC4yODJoMGExLjYwOSwxLjYwOSwwLDAsMC0xLjYwNywxLjYwN0EuMTQxLjE0MSwwLDAsMSwxNS42MTEsMTcuNDU2WiIgZmlsbD0iIzUwZTZmZiIvPiYjeGE7ICA8Zz4mI3hhOyAgICA8cGF0aCBkPSJNMTQuOTY5LDcuNTNBNi4xMzcsNi4xMzcsMCwxLDEsNy41NzQsMi45ODcsNi4xMzcsNi4xMzcsMCwwLDEsMTQuOTY5LDcuNTNaIiBmaWxsPSJ1cmwoI2IyNWQwODM2LTk2NGEtNGM4NC04YzIwLTg1NWY2NmU4MzQ1ZSkiLz4mI3hhOyAgICA8ZyBjbGlwLXBhdGg9InVybCgjYjM2YzdmNWQtMmVmMS00NzYwLThhMjUtZWViOTY2MWY0ZTQ3KSI+JiN4YTsgICAgICA8cGF0aCBkPSJNNS43MDksMTMuMTE1QTEuNjM4LDEuNjM4LDAsMSwwLDUuNzE0LDkuODQsMS4zMDcsMS4zMDcsMCwwLDAsNS43MjEsOS43LDEuNjUxLDEuNjUxLDAsMCwwLDQuMDYsOC4wNjRIMi44MzJhNi4yNTEsNi4yNTEsMCwwLDAsMS41OTUsNS4wNTFaIiBmaWxsPSIjZjJmMmYyIi8+JiN4YTsgICAgICA8cGF0aCBkPSJNMTUuMDQ1LDcuODE1YzAtLjAxNSwwLS4wMy0uMDA3LS4wNDRhNS45NzgsNS45NzgsMCwwLDAtMS40MDYtMi44OCwxLjgyNSwxLjgyNSwwLDAsMC0uMjg5LS4wOSwxLjgwNiwxLjgwNiwwLDAsMC0yLjMsMS42NjMsMiwyLDAsMCwwLS4yLS4wMTMsMS43MzcsMS43MzcsMCwwLDAtLjU4MSwzLjM3NCwxLjQ1MSwxLjQ1MSwwLDAsMCwuNTQxLjFoMi4wM0ExMy40NTMsMTMuNDUzLDAsMCwwLDE1LjA0NSw3LjgxNVoiIGZpbGw9IiNmMmYyZjIiLz4mI3hhOyAgICA8L2c+JiN4YTsgIDwvZz4mI3hhOyAgPHBhdGggZD0iTTE3LjE5MSwzLjgzMmMtLjYyOS0xLjA0Ny0yLjEtMS40NTUtNC4xNTUtMS4xNDlhMTQuNjA2LDE0LjYwNiwwLDAsMC0yLjA4Mi40NTIsNi40NTYsNi40NTYsMCwwLDEsMS41MjguNzY3Yy4yNDEtLjA1My40ODMtLjExNi43MTUtLjE1MUE3LjQ5LDcuNDksMCwwLDEsMTQuMywzLjY2MmEyLjE4OCwyLjE4OCwwLDAsMSwxLjk1OS43MjVoMGMuMzgzLjYzOC4wNiwxLjcyOS0uODg2LDNhMTYuNzIzLDE2LjcyMywwLDAsMS00Ljc0OSw0LjA1MUExNi43NTgsMTYuNzU4LDAsMCwxLDQuOCwxMy43Yy0xLjU2NC4yMzQtMi42ODIsMC0zLjA2NS0uNjM2cy0uMDYtMS43My44ODYtMi45OTVjLjExNy0uMTU3LjE0Ni0uMjM0LjI3OS0uMzkyYTYuMjUyLDYuMjUyLDAsMCwxLC4wMjYtMS42M0ExMS41NTIsMTEuNTUyLDAsMCwwLDEuNzU2LDkuNDE5Qy41MTcsMTEuMDc2LjE4MSwxMi41NjYuODA5LDEzLjYxM2EzLjE2NSwzLjE2NSwwLDAsMCwyLjksMS4yNDksOC40MzQsOC40MzQsMCwwLDAsMS4yNTEtLjEsMTcuODU1LDE3Ljg1NSwwLDAsMCw2LjIxOS0yLjQsMTcuODA4LDE3LjgwOCwwLDAsMCw1LjA2MS00LjMzMkMxNy40ODMsNi4zNjksMTcuODE5LDQuODgsMTcuMTkxLDMuODMyWiIgZmlsbD0iIzUwZTZmZiIvPiYjeGE7PG1ldGFkYXRhPiYjeGE7ICAgPHJkZjpSREYgeG1sbnM6cmRmPSJodHRwOi8vd3d3LnczLm9yZy8xOTk5LzAyLzIyLXJkZi1zeW50YXgtbnMjIj4mI3hhOyAgICAgIDxyZGY6bGk+cHVibGljOnRydWU8L3JkZjpsaT4mI3hhOyAgICAgIDxyZGY6bGk+c2RrOmZhbHNlPC9yZGY6bGk+JiN4YTsgICAgICA8cmRmOmxpPmNhdGVnb3J5OiBEYXRhYmFzZXM8L3JkZjpsaT4mI3hhOyAgIDwvcmRmOlJERj4mI3hhOzwvbWV0YWRhdGE+JiN4YTs8L3N2Zz4=;" parent="1" vertex="1">
                    <mxGeometry x="606" y="225" width="50" height="50" as="geometry"/>
                </mxCell>
                <mxCell id="33" style="edgeStyle=orthogonalEdgeStyle;rounded=0;orthogonalLoop=1;jettySize=auto;html=1;exitX=1;exitY=0.5;exitDx=0;exitDy=0;entryX=0;entryY=0.5;entryDx=0;entryDy=0;" parent="1" source="34" target="5" edge="1">
                    <mxGeometry relative="1" as="geometry"/>
                </mxCell>
                <mxCell id="43" style="edgeStyle=orthogonalEdgeStyle;rounded=0;orthogonalLoop=1;jettySize=auto;html=1;exitX=0.5;exitY=1;exitDx=0;exitDy=0;entryX=0.5;entryY=0;entryDx=0;entryDy=0;" parent="1" source="7" target="34" edge="1">
                    <mxGeometry relative="1" as="geometry"/>
                </mxCell>
                <mxCell id="7" value="" style="shape=image;imageAspect=0;aspect=fixed;verticalLabelPosition=bottom;verticalAlign=top;image=data:image/svg+xml,PHN2ZyB4bWxucz0iaHR0cDovL3d3dy53My5vcmcvMjAwMC9zdmciIGlkPSJiNzBhY2YwYS0zNGI0LTRiZGYtOTAyNC03NDk2MDQzZmY5MTUiIHdpZHRoPSIxOCIgaGVpZ2h0PSIxOCIgdmlld0JveD0iMCAwIDE4IDE4Ij4mI3hhOyAgICA8ZGVmcz4mI3hhOyAgICAgICAgPHJhZGlhbEdyYWRpZW50IGlkPSJlMmNmODc0Ni1jOWE4LTRlZWUtODZjMi00OTUxOTgzYzYwMzIiIGN4PSIxMzQyOC44MSIgY3k9IjM1MTguODYiIHI9IjU2LjY3IiBncmFkaWVudFRyYW5zZm9ybT0idHJhbnNsYXRlKC0yMDA1LjMzIC01MTguODMpIHNjYWxlKDAuMTUpIiBncmFkaWVudFVuaXRzPSJ1c2VyU3BhY2VPblVzZSI+JiN4YTsgICAgICAgICAgICA8c3RvcCBvZmZzZXQ9IjAuMTgiIHN0b3AtY29sb3I9IiM1ZWEwZWYiLz4mI3hhOyAgICAgICAgICAgIDxzdG9wIG9mZnNldD0iMSIgc3RvcC1jb2xvcj0iIzAwNzhkNCIvPiYjeGE7ICAgICAgICA8L3JhZGlhbEdyYWRpZW50PiYjeGE7ICAgICAgICA8bGluZWFyR3JhZGllbnQgaWQ9ImJkZDIxM2RkLWQzMTMtNDczYy04ZmY0LTAxMzNmZDNhOTAzMyIgeDE9IjQuNCIgeTE9IjExLjQ4IiB4Mj0iNC4zNyIgeTI9IjcuNTMiIGdyYWRpZW50VW5pdHM9InVzZXJTcGFjZU9uVXNlIj4mI3hhOyAgICAgICAgICAgIDxzdG9wIG9mZnNldD0iMCIgc3RvcC1jb2xvcj0iI2NjYyIvPiYjeGE7ICAgICAgICAgICAgPHN0b3Agb2Zmc2V0PSIxIiBzdG9wLWNvbG9yPSIjZmNmY2ZjIi8+JiN4YTsgICAgICAgIDwvbGluZWFyR3JhZGllbnQ+JiN4YTsgICAgICAgIDxsaW5lYXJHcmFkaWVudCBpZD0iYWZjYzYzYzUtMzY0OS00NDc2LWE3NDItYmNiNTNhNTY5ZjNjIiB4MT0iMTAuMTMiIHkxPSIxNS40NSIgeDI9IjEwLjEzIiB5Mj0iMTEuOSIgZ3JhZGllbnRVbml0cz0idXNlclNwYWNlT25Vc2UiPiYjeGE7ICAgICAgICAgICAgICAgICAgICA8c3RvcCBvZmZzZXQ9IjAiIHN0b3AtY29sb3I9IiNjY2MiLz4mI3hhOyAgICAgICAgICAgIDxzdG9wIG9mZnNldD0iMSIgc3RvcC1jb2xvcj0iI2ZjZmNmYyIvPiYjeGE7ICAgICAgICA8L2xpbmVhckdyYWRpZW50PiYjeGE7ICAgICAgICA8bGluZWFyR3JhZGllbnQgaWQ9ImJkODczZjBiLTk5NTQtNGFhNS1hM2RmLTlmNGM2NGU4NzI5ZCIgeDE9IjE0LjE4IiB5MT0iMTEuMTUiIHgyPSIxNC4xOCIgeTI9IjcuMzgiIGdyYWRpZW50VW5pdHM9InVzZXJTcGFjZU9uVXNlIj4mI3hhOyAgICAgICAgICAgICAgICAgICAgPHN0b3Agb2Zmc2V0PSIwIiBzdG9wLWNvbG9yPSIjY2NjIi8+JiN4YTsgICAgICAgICAgICA8c3RvcCBvZmZzZXQ9IjEiIHN0b3AtY29sb3I9IiNmY2ZjZmMiLz4mI3hhOyAgICAgICAgPC9saW5lYXJHcmFkaWVudD4mI3hhOyAgICA8L2RlZnM+JiN4YTsgICAgPHRpdGxlPkljb24td2ViLTQxPC90aXRsZT4mI3hhOyAgICA8cGF0aCBpZD0iZWU3NWRkMDYtMWFjYS00Zjc2LTlkMTEtZDA1YTI4NDAyMGFkIiBkPSJNMTQuMjEsMTUuNzJBOC41LDguNSwwLDAsMSwzLjc5LDIuMjhsLjA5LS4wNmE4LjUsOC41LDAsMCwxLDEwLjMzLDEzLjUiIGZpbGw9InVybCgjZTJjZjg3NDYtYzlhOC00ZWVlLTg2YzItNDk1MTk4M2M2MDMyKSIvPiYjeGE7ICAgIDxwYXRoIGQ9Ik02LjY5LDcuMjNBMTMsMTMsMCwwLDEsMTUuNiwzLjY1YTguNDcsOC40NywwLDAsMC0xLjQ5LTEuNDQsMTQuMzQsMTQuMzQsMCwwLDAtNC42OSwxLjFBMTIuNTQsMTIuNTQsMCwwLDAsNS4zNCw2LjEzLDIuNzYsMi43NiwwLDAsMSw2LjY5LDcuMjNaIiBmaWxsPSIjZmZmIiBvcGFjaXR5PSIwLjYiLz4mI3hhOyAgICA8cGF0aCBkPSJNMi40OCwxMC42NWExNy44NiwxNy44NiwwLDAsMC0uODMsMi42Miw3LjgyLDcuODIsMCwwLDAsLjYyLjkyYy4xOC4yMy4zNS40NC41NS42NUExNy45NCwxNy45NCwwLDAsMSwzLjksMTEuMzcsMi43NiwyLjc2LDAsMCwxLDIuNDgsMTAuNjVaIiBmaWxsPSIjZmZmIiBvcGFjaXR5PSIwLjYiLz4mI3hhOyAgICA8cGF0aCBkPSJNMy40Niw2LjExYTEyLDEyLDAsMCwxLS42OS0yLjk0LDguMTUsOC4xNSwwLDAsMC0xLjEsMS40NUExMi42OSwxMi42OSwwLDAsMCwyLjI0LDcsMi42OSwyLjY5LDAsMCwxLDMuNDYsNi4xMVoiIGZpbGw9IiNmMmYyZjIiIG9wYWNpdHk9IjAuNTUiLz4mI3hhOyAgICA8Y2lyY2xlIGN4PSI0LjM4IiBjeT0iOC42OCIgcj0iMi43MyIgZmlsbD0idXJsKCNiZGQyMTNkZC1kMzEzLTQ3M2MtOGZmNC0wMTMzZmQzYTkwMzMpIi8+JiN4YTsgICAgPHBhdGggZD0iTTguMzYsMTMuNjdBMS43NywxLjc3LDAsMCwxLDguOSwxMi40YTExLjg4LDExLjg4LDAsMCwxLTIuNTMtMS44NiwyLjc0LDIuNzQsMCwwLDEtMS40OS44MywxMy4xLDEzLjEsMCwwLDAsMS40NSwxLjI4QTEyLjEyLDEyLjEyLDAsMCwwLDguMzgsMTMuOSwxLjc5LDEuNzksMCwwLDEsOC4zNiwxMy42N1oiIGZpbGw9IiNmMmYyZjIiIG9wYWNpdHk9IjAuNTUiLz4mI3hhOyAgICA8cGF0aCBkPSJNMTQuNjYsMTMuODhhMTIsMTIsMCwwLDEtMi43Ni0uMzIuNDEuNDEsMCwwLDEsMCwuMTEsMS43NSwxLjc1LDAsMCwxLS41MSwxLjI0LDEzLjY5LDEzLjY5LDAsMCwwLDMuNDIuMjRBOC4yMSw4LjIxLDAsMCwwLDE2LDEzLjgxLDExLjUsMTEuNSwwLDAsMSwxNC42NiwxMy44OFoiIGZpbGw9IiNmMmYyZjIiIG9wYWNpdHk9IjAuNTUiLz4mI3hhOyAgICA8Y2lyY2xlIGN4PSIxMC4xMyIgY3k9IjEzLjY3IiByPSIxLjc4IiBmaWxsPSJ1cmwoI2FmY2M2M2M1LTM2NDktNDQ3Ni1hNzQyLWJjYjUzYTU2OWYzYykiLz4mI3hhOyAgICA8cGF0aCBkPSJNMTIuMzIsOC45M2ExLjgzLDEuODMsMCwwLDEsLjYxLTFBMjUuNSwyNS41LDAsMCwxLDguNDcsMy43OWExNi45MSwxNi45MSwwLDAsMS0yLTIuOTIsNy42NCw3LjY0LDAsMCwwLTEuMDkuNDJBMTguMTQsMTguMTQsMCwwLDAsNy41Myw0LjQ3LDI2LjQ0LDI2LjQ0LDAsMCwwLDEyLjMyLDguOTNaIiBmaWxsPSIjZjJmMmYyIiBvcGFjaXR5PSIwLjciLz4mI3hhOyAgICA8Y2lyY2xlIGN4PSIxNC4xOCIgY3k9IjkuMjciIHI9IjEuODkiIGZpbGw9InVybCgjYmQ4NzNmMGItOTk1NC00YWE1LWEzZGYtOWY0YzY0ZTg3MjlkKSIvPiYjeGE7ICAgIDxwYXRoIGQ9Ik0xNy4zNSwxMC41NCwxNywxMC4zN2wwLDAtLjMtLjE2LS4wNiwwTDE2LjM4LDEwbC0uMDcsMEwxNiw5LjhhMS43NiwxLjc2LDAsMCwxLS42NC45MmMuMTIuMDguMjUuMTUuMzguMjJsLjA4LjA1LjM1LjE5LDAsMCwuODYuNDVoMGE4LjYzLDguNjMsMCwwLDAsLjI5LTEuMTFaIiBmaWxsPSIjZjJmMmYyIiBvcGFjaXR5PSIwLjU1Ii8+JiN4YTsgICAgPGNpcmNsZSBjeD0iNC4zOCIgY3k9IjguNjgiIHI9IjIuNzMiIGZpbGw9InVybCgjYmRkMjEzZGQtZDMxMy00NzNjLThmZjQtMDEzM2ZkM2E5MDMzKSIvPiYjeGE7ICAgIDxjaXJjbGUgY3g9IjEwLjEzIiBjeT0iMTMuNjciIHI9IjEuNzgiIGZpbGw9InVybCgjYWZjYzYzYzUtMzY0OS00NDc2LWE3NDItYmNiNTNhNTY5ZjNjKSIvPiYjeGE7PG1ldGFkYXRhPiYjeGE7ICAgPHJkZjpSREYgeG1sbnM6cmRmPSJodHRwOi8vd3d3LnczLm9yZy8xOTk5LzAyLzIyLXJkZi1zeW50YXgtbnMjIj4mI3hhOyAgICAgIDxyZGY6bGk+cHVibGljOnRydWU8L3JkZjpsaT4mI3hhOyAgICAgIDxyZGY6bGk+c2RrOk1zUG9ydGFsRnguQmFzZS5JbWFnZXMuUG9seWNocm9tYXRpYy5XZWJzaXRlKCk8L3JkZjpsaT4mI3hhOyAgICAgIDxyZGY6bGk+Y2F0ZWdvcnk6IENvbXB1dGUsIENvbnRhaW5lcnMsIEFwcCBTZXJ2aWNlczwvcmRmOmxpPiYjeGE7ICAgPC9yZGY6UkRGPiYjeGE7PC9tZXRhZGF0YT4mI3hhOzwvc3ZnPg==;" parent="1" vertex="1">
                    <mxGeometry x="475" y="115" width="50" height="50" as="geometry"/>
                </mxCell>
                <mxCell id="8" value="back-azure: App Service" style="text;html=1;resizable=0;autosize=1;align=center;verticalAlign=middle;points=[];fillColor=none;strokeColor=none;rounded=0;" parent="1" vertex="1">
                    <mxGeometry x="425" y="165" width="150" height="20" as="geometry"/>
                </mxCell>
                <mxCell id="44" style="edgeStyle=orthogonalEdgeStyle;rounded=0;orthogonalLoop=1;jettySize=auto;html=1;exitX=1;exitY=0.5;exitDx=0;exitDy=0;" parent="1" source="9" edge="1">
                    <mxGeometry relative="1" as="geometry">
                        <mxPoint x="300" y="200" as="targetPoint"/>
                        <Array as="points">
                            <mxPoint x="300" y="218"/>
                        </Array>
                    </mxGeometry>
                </mxCell>
                <mxCell id="9" value="" style="shape=image;verticalLabelPosition=bottom;labelBackgroundColor=#ffffff;verticalAlign=top;aspect=fixed;imageAspect=0;image=data:image/svg+xml,PHN2ZyB4bWxucz0iaHR0cDovL3d3dy53My5vcmcvMjAwMC9zdmciIGlkPSJiZGI1NjMyOS00NzE3LTQ0MTAtYWExMy00NTA1ZWNhYTRlNDYiIHdpZHRoPSIxOCIgaGVpZ2h0PSIxOCIgdmlld0JveD0iMCAwIDE4IDE4Ij4mI3hhOyAgPGRlZnM+JiN4YTsgICAgPGxpbmVhckdyYWRpZW50IGlkPSJiYTI2MTBjMy1hNDVhLTRlN2UtYTBjMC0yODVjZmQ3ZTAwNWQiIHgxPSIxMy4yNSIgeTE9IjEzLjAyIiB4Mj0iOC42MiIgeTI9IjQuMjUiIGdyYWRpZW50VW5pdHM9InVzZXJTcGFjZU9uVXNlIj4mI3hhOyAgICAgIDxzdG9wIG9mZnNldD0iMCIgc3RvcC1jb2xvcj0iIzE5ODhkOSIvPiYjeGE7ICAgICAgPHN0b3Agb2Zmc2V0PSIwLjkiIHN0b3AtY29sb3I9IiM1NGFlZjAiLz4mI3hhOyAgICA8L2xpbmVhckdyYWRpZW50PiYjeGE7ICAgIDxsaW5lYXJHcmFkaWVudCBpZD0iYmQ4ZjYxOGItNGYyZi00Y2I3LWFmZjAtMmZkMmQyMTEzMjZkIiB4MT0iMTEuMjYiIHkxPSIxMC40NyIgeDI9IjE0LjQ2IiB5Mj0iMTUuOTkiIGdyYWRpZW50VW5pdHM9InVzZXJTcGFjZU9uVXNlIj4mI3hhOyAgICAgIDxzdG9wIG9mZnNldD0iMC4xIiBzdG9wLWNvbG9yPSIjNTRhZWYwIi8+JiN4YTsgICAgICA8c3RvcCBvZmZzZXQ9IjAuMjkiIHN0b3AtY29sb3I9IiM0ZmFiZWUiLz4mI3hhOyAgICAgIDxzdG9wIG9mZnNldD0iMC41MSIgc3RvcC1jb2xvcj0iIzQxYTJlOSIvPiYjeGE7ICAgICAgPHN0b3Agb2Zmc2V0PSIwLjc0IiBzdG9wLWNvbG9yPSIjMmE5M2UwIi8+JiN4YTsgICAgICA8c3RvcCBvZmZzZXQ9IjAuODgiIHN0b3AtY29sb3I9IiMxOTg4ZDkiLz4mI3hhOyAgICA8L2xpbmVhckdyYWRpZW50PiYjeGE7ICA8L2RlZnM+JiN4YTsgIDx0aXRsZT5JY29uLWlkZW50aXR5LTIyMTwvdGl0bGU+JiN4YTsgIDxwb2x5Z29uIHBvaW50cz0iMS4wMSAxMC4xOSA4LjkzIDE1LjMzIDE2Ljk5IDEwLjE3IDE4IDExLjM1IDguOTMgMTcuMTkgMCAxMS4zNSAxLjAxIDEwLjE5IiBmaWxsPSIjNTBlNmZmIi8+JiN4YTsgIDxwb2x5Z29uIHBvaW50cz0iMS42MSA5LjUzIDguOTMgMC44MSAxNi40IDkuNTQgOC45MyAxNC4yNiAxLjYxIDkuNTMiIGZpbGw9IiNmZmYiLz4mI3hhOyAgPHBvbHlnb24gcG9pbnRzPSI4LjkzIDAuODEgOC45MyAxNC4yNiAxLjYxIDkuNTMgOC45MyAwLjgxIiBmaWxsPSIjNTBlNmZmIi8+JiN4YTsgIDxwb2x5Z29uIHBvaW50cz0iOC45MyAwLjgxIDguOTMgMTQuMjYgMTYuNCA5LjU0IDguOTMgMC44MSIgZmlsbD0idXJsKCNiYTI2MTBjMy1hNDVhLTRlN2UtYTBjMC0yODVjZmQ3ZTAwNWQpIi8+JiN4YTsgIDxwb2x5Z29uIHBvaW50cz0iOC45MyA3Ljc2IDE2LjQgOS41NCA4LjkzIDE0LjI2IDguOTMgNy43NiIgZmlsbD0iIzUzYjFlMCIvPiYjeGE7ICA8cG9seWdvbiBwb2ludHM9IjguOTMgMTQuMjYgMS42MSA5LjUzIDguOTMgNy43NiA4LjkzIDE0LjI2IiBmaWxsPSIjOWNlYmZmIi8+JiN4YTsgIDxwb2x5Z29uIHBvaW50cz0iOC45MyAxNy4xOSAxOCAxMS4zNSAxNi45OSAxMC4xNyA4LjkzIDE1LjMzIDguOTMgMTcuMTkiIGZpbGw9InVybCgjYmQ4ZjYxOGItNGYyZi00Y2I3LWFmZjAtMmZkMmQyMTEzMjZkKSIvPiYjeGE7PG1ldGFkYXRhPiYjeGE7ICAgPHJkZjpSREYgeG1sbnM6cmRmPSJodHRwOi8vd3d3LnczLm9yZy8xOTk5LzAyLzIyLXJkZi1zeW50YXgtbnMjIj4mI3hhOyAgICAgIDxyZGY6bGk+cHVibGljOnRydWU8L3JkZjpsaT4mI3hhOyAgICAgIDxyZGY6bGk+c2RrOk1zUG9ydGFsRnguQmFzZS5JbWFnZXMuUG9seWNocm9tYXRpYy5BY3RpdmVEaXJlY3RvcnkoKTwvcmRmOmxpPiYjeGE7ICAgICAgPHJkZjpsaT5jYXRlZ29yeTogSWRlbnRpdHk8L3JkZjpsaT4mI3hhOyAgIDwvcmRmOlJERj4mI3hhOzwvbWV0YWRhdGE+JiN4YTs8L3N2Zz4=;" parent="1" vertex="1">
                    <mxGeometry x="160" y="195" width="45" height="45" as="geometry"/>
                </mxCell>
                <mxCell id="10" value="Azure Active Directory" style="text;html=1;resizable=0;autosize=1;align=center;verticalAlign=middle;points=[];fillColor=none;strokeColor=none;rounded=0;" parent="1" vertex="1">
                    <mxGeometry x="117.5" y="240" width="130" height="20" as="geometry"/>
                </mxCell>
                <mxCell id="11" value="Cosmos DB" style="text;html=1;resizable=0;autosize=1;align=center;verticalAlign=middle;points=[];fillColor=none;strokeColor=none;rounded=0;" parent="1" vertex="1">
                    <mxGeometry x="591" y="275" width="80" height="20" as="geometry"/>
                </mxCell>
                <mxCell id="12" value="ACR (Azure Container Resistry)" style="text;html=1;resizable=0;autosize=1;align=center;verticalAlign=middle;points=[];fillColor=none;strokeColor=none;rounded=0;" parent="1" vertex="1">
                    <mxGeometry x="220" y="275" width="190" height="20" as="geometry"/>
                </mxCell>
                <mxCell id="15" style="edgeStyle=orthogonalEdgeStyle;rounded=0;orthogonalLoop=1;jettySize=auto;html=1;exitX=0.5;exitY=0;exitDx=0;exitDy=0;" parent="1" source="13" target="12" edge="1">
                    <mxGeometry relative="1" as="geometry"/>
                </mxCell>
                <mxCell id="13" value="" style="shape=image;verticalLabelPosition=bottom;labelBackgroundColor=#ffffff;verticalAlign=top;aspect=fixed;imageAspect=0;image=data:image/svg+xml,PHN2ZyB4bWxucz0iaHR0cDovL3d3dy53My5vcmcvMjAwMC9zdmciIHZpZXdCb3g9IjAgMCAyNTYgMjU2IiBmaWxsPSJub25lIj4mI3hhOzxtYXNrIGlkPSJtYXNrMCIgbWFzay10eXBlPSJhbHBoYSIgbWFza1VuaXRzPSJ1c2VyU3BhY2VPblVzZSIgeD0iMCIgeT0iMCIgd2lkdGg9IjI1NiIgaGVpZ2h0PSIyNTYiPiYjeGE7PHBhdGggZmlsbC1ydWxlPSJldmVub2RkIiBjbGlwLXJ1bGU9ImV2ZW5vZGQiIGQ9Ik0xODEuNTM0IDI1NC4yNTJDMTg1LjU2NiAyNTUuODIzIDE5MC4xNjQgMjU1LjcyMiAxOTQuMjM0IDI1My43NjRMMjQ2Ljk0IDIyOC40MDNDMjUyLjQ3OCAyMjUuNzM4IDI1NiAyMjAuMTMyIDI1NiAyMTMuOTgzVjQyLjAxODFDMjU2IDM1Ljg2ODkgMjUyLjQ3OCAzMC4yNjM4IDI0Ni45NCAyNy41OTg4TDE5NC4yMzQgMi4yMzY4MUMxODguODkzIC0wLjMzMzEzMiAxODIuNjQyIDAuMjk2MzQ0IDE3Ny45NTUgMy43MDQxOEMxNzcuMjg1IDQuMTkxIDE3Ni42NDcgNC43MzQ1NCAxNzYuMDQ5IDUuMzMzNTRMNzUuMTQ5IDk3LjM4NjJMMzEuMTk5MiA2NC4wMjQ3QzI3LjEwNzkgNjAuOTE5MSAyMS4zODUzIDYxLjE3MzUgMTcuNTg1NSA2NC42M0wzLjQ4OTM2IDc3LjQ1MjVDLTEuMTU4NTMgODEuNjgwNSAtMS4xNjM4NiA4OC45OTI2IDMuNDc3ODUgOTMuMjI3NEw0MS41OTI2IDEyOEwzLjQ3Nzg1IDE2Mi43NzNDLTEuMTYzODYgMTY3LjAwOCAtMS4xNTg1MyAxNzQuMzIgMy40ODkzNiAxNzguNTQ4TDE3LjU4NTUgMTkxLjM3QzIxLjM4NTMgMTk0LjgyNyAyNy4xMDc5IDE5NS4wODEgMzEuMTk5MiAxOTEuOTc2TDc1LjE0OSAxNTguNjE0TDE3Ni4wNDkgMjUwLjY2N0MxNzcuNjQ1IDI1Mi4yNjQgMTc5LjUxOSAyNTMuNDY3IDE4MS41MzQgMjU0LjI1MlpNMTkyLjAzOSA2OS44ODUzTDExNS40NzkgMTI4TDE5Mi4wMzkgMTg2LjExNVY2OS44ODUzWiIgZmlsbD0id2hpdGUiLz4mI3hhOzwvbWFzaz4mI3hhOzxnIG1hc2s9InVybCgjbWFzazApIj4mI3hhOzxwYXRoIGQ9Ik0yNDYuOTQgMjcuNjM4M0wxOTQuMTkzIDIuMjQxMzhDMTg4LjA4OCAtMC42OTgzMDIgMTgwLjc5MSAwLjU0MTcyMSAxNzUuOTk5IDUuMzMzMzJMMy4zMjM3MSAxNjIuNzczQy0xLjMyMDgyIDE2Ny4wMDggLTEuMzE1NDggMTc0LjMyIDMuMzM1MjMgMTc4LjU0OEwxNy40Mzk5IDE5MS4zN0MyMS4yNDIxIDE5NC44MjcgMjYuOTY4MiAxOTUuMDgxIDMxLjA2MTkgMTkxLjk3NkwyMzkuMDAzIDM0LjIyNjlDMjQ1Ljk3OSAyOC45MzQ3IDI1NS45OTkgMzMuOTEwMyAyNTUuOTk5IDQyLjY2NjdWNDIuMDU0M0MyNTUuOTk5IDM1LjkwNzggMjUyLjQ3OCAzMC4zMDQ3IDI0Ni45NCAyNy42MzgzWiIgZmlsbD0iIzAwNjVBOSIvPiYjeGE7PGcgZmlsdGVyPSJ1cmwoI2ZpbHRlcjBfZCkiPiYjeGE7PHBhdGggZD0iTTI0Ni45NCAyMjguMzYyTDE5NC4xOTMgMjUzLjc1OUMxODguMDg4IDI1Ni42OTggMTgwLjc5MSAyNTUuNDU4IDE3NS45OTkgMjUwLjY2N0wzLjMyMzcxIDkzLjIyNzJDLTEuMzIwODIgODguOTkyNSAtMS4zMTU0OCA4MS42ODAyIDMuMzM1MjMgNzcuNDUyM0wxNy40Mzk5IDY0LjYyOThDMjEuMjQyMSA2MS4xNzMzIDI2Ljk2ODIgNjAuOTE4OCAzMS4wNjE5IDY0LjAyNDVMMjM5LjAwMyAyMjEuNzczQzI0NS45NzkgMjI3LjA2NSAyNTUuOTk5IDIyMi4wOSAyNTUuOTk5IDIxMy4zMzNWMjEzLjk0NkMyNTUuOTk5IDIyMC4wOTIgMjUyLjQ3OCAyMjUuNjk1IDI0Ni45NCAyMjguMzYyWiIgZmlsbD0iIzAwN0FDQyIvPiYjeGE7PC9nPiYjeGE7PGcgZmlsdGVyPSJ1cmwoI2ZpbHRlcjFfZCkiPiYjeGE7PHBhdGggZD0iTTE5NC4xOTYgMjUzLjc2M0MxODguMDg5IDI1Ni43IDE4MC43OTIgMjU1LjQ1OSAxNzYgMjUwLjY2N0MxODEuOTA0IDI1Ni41NzEgMTkyIDI1Mi4zODkgMTkyIDI0NC4wMzlWMTEuOTYwNkMxOTIgMy42MTA1NyAxODEuOTA0IC0wLjU3MTE3NSAxNzYgNS4zMzMyMUMxODAuNzkyIDAuNTQxMTY2IDE4OC4wODkgLTAuNzAwNjA3IDE5NC4xOTYgMi4yMzY0OEwyNDYuOTM0IDI3LjU5ODVDMjUyLjQ3NiAzMC4yNjM1IDI1NiAzNS44Njg2IDI1NiA0Mi4wMTc4VjIxMy45ODNDMjU2IDIyMC4xMzIgMjUyLjQ3NiAyMjUuNzM3IDI0Ni45MzQgMjI4LjQwMkwxOTQuMTk2IDI1My43NjNaIiBmaWxsPSIjMUY5Q0YwIi8+JiN4YTs8L2c+JiN4YTs8ZyBzdHlsZT0ibWl4LWJsZW5kLW1vZGU6b3ZlcmxheSIgb3BhY2l0eT0iMC4yNSI+JiN4YTs8cGF0aCBmaWxsLXJ1bGU9ImV2ZW5vZGQiIGNsaXAtcnVsZT0iZXZlbm9kZCIgZD0iTTE4MS4zNzggMjU0LjI1MkMxODUuNDEgMjU1LjgyMiAxOTAuMDA4IDI1NS43MjIgMTk0LjA3NyAyNTMuNzY0TDI0Ni43ODMgMjI4LjQwMkMyNTIuMzIyIDIyNS43MzcgMjU1Ljg0NCAyMjAuMTMyIDI1NS44NDQgMjEzLjk4M1Y0Mi4wMTc5QzI1NS44NDQgMzUuODY4NyAyNTIuMzIyIDMwLjI2MzYgMjQ2Ljc4NCAyNy41OTg2TDE5NC4wNzcgMi4yMzY2NUMxODguNzM3IC0wLjMzMzI5OSAxODIuNDg2IDAuMjk2MTc3IDE3Ny43OTggMy43MDQwMUMxNzcuMTI5IDQuMTkwODMgMTc2LjQ5MSA0LjczNDM3IDE3NS44OTIgNS4zMzMzN0w3NC45OTI3IDk3LjM4NkwzMS4wNDI5IDY0LjAyNDVDMjYuOTUxNyA2MC45MTg5IDIxLjIyOSA2MS4xNzM0IDE3LjQyOTIgNjQuNjI5OEwzLjMzMzExIDc3LjQ1MjNDLTEuMzE0NzggODEuNjgwMyAtMS4zMjAxMSA4OC45OTI1IDMuMzIxNiA5My4yMjczTDQxLjQzNjQgMTI4TDMuMzIxNiAxNjIuNzczQy0xLjMyMDExIDE2Ny4wMDggLTEuMzE0NzggMTc0LjMyIDMuMzMzMTEgMTc4LjU0OEwxNy40MjkyIDE5MS4zN0MyMS4yMjkgMTk0LjgyNyAyNi45NTE3IDE5NS4wODEgMzEuMDQyOSAxOTEuOTc2TDc0Ljk5MjcgMTU4LjYxNEwxNzUuODkyIDI1MC42NjdDMTc3LjQ4OCAyNTIuMjY0IDE3OS4zNjMgMjUzLjQ2NyAxODEuMzc4IDI1NC4yNTJaTTE5MS44ODMgNjkuODg1MUwxMTUuMzIzIDEyOEwxOTEuODgzIDE4Ni4xMTVWNjkuODg1MVoiIGZpbGw9InVybCgjcGFpbnQwX2xpbmVhcikiLz4mI3hhOzwvZz4mI3hhOzwvZz4mI3hhOzxkZWZzPiYjeGE7PGZpbHRlciBpZD0iZmlsdGVyMF9kIiB4PSItMjEuNDg5NiIgeT0iNDAuNTIyNSIgd2lkdGg9IjI5OC44MjIiIGhlaWdodD0iMjM2LjE0OSIgZmlsdGVyVW5pdHM9InVzZXJTcGFjZU9uVXNlIiBjb2xvci1pbnRlcnBvbGF0aW9uLWZpbHRlcnM9InNSR0IiPiYjeGE7PGZlRmxvb2QgZmxvb2Qtb3BhY2l0eT0iMCIgcmVzdWx0PSJCYWNrZ3JvdW5kSW1hZ2VGaXgiLz4mI3hhOzxmZUNvbG9yTWF0cml4IGluPSJTb3VyY2VBbHBoYSIgdHlwZT0ibWF0cml4IiB2YWx1ZXM9IjAgMCAwIDAgMCAwIDAgMCAwIDAgMCAwIDAgMCAwIDAgMCAwIDEyNyAwIi8+JiN4YTs8ZmVPZmZzZXQvPiYjeGE7PGZlR2F1c3NpYW5CbHVyIHN0ZERldmlhdGlvbj0iMTAuNjY2NyIvPiYjeGE7PGZlQ29sb3JNYXRyaXggdHlwZT0ibWF0cml4IiB2YWx1ZXM9IjAgMCAwIDAgMCAwIDAgMCAwIDAgMCAwIDAgMCAwIDAgMCAwIDAuMjUgMCIvPiYjeGE7PGZlQmxlbmQgbW9kZT0ib3ZlcmxheSIgaW4yPSJCYWNrZ3JvdW5kSW1hZ2VGaXgiIHJlc3VsdD0iZWZmZWN0MV9kcm9wU2hhZG93Ii8+JiN4YTs8ZmVCbGVuZCBtb2RlPSJub3JtYWwiIGluPSJTb3VyY2VHcmFwaGljIiBpbjI9ImVmZmVjdDFfZHJvcFNoYWRvdyIgcmVzdWx0PSJzaGFwZSIvPiYjeGE7PC9maWx0ZXI+JiN4YTs8ZmlsdGVyIGlkPSJmaWx0ZXIxX2QiIHg9IjE1NC42NjciIHk9Ii0yMC42NzM1IiB3aWR0aD0iMTIyLjY2NyIgaGVpZ2h0PSIyOTcuMzQ3IiBmaWx0ZXJVbml0cz0idXNlclNwYWNlT25Vc2UiIGNvbG9yLWludGVycG9sYXRpb24tZmlsdGVycz0ic1JHQiI+JiN4YTs8ZmVGbG9vZCBmbG9vZC1vcGFjaXR5PSIwIiByZXN1bHQ9IkJhY2tncm91bmRJbWFnZUZpeCIvPiYjeGE7PGZlQ29sb3JNYXRyaXggaW49IlNvdXJjZUFscGhhIiB0eXBlPSJtYXRyaXgiIHZhbHVlcz0iMCAwIDAgMCAwIDAgMCAwIDAgMCAwIDAgMCAwIDAgMCAwIDAgMTI3IDAiLz4mI3hhOzxmZU9mZnNldC8+JiN4YTs8ZmVHYXVzc2lhbkJsdXIgc3RkRGV2aWF0aW9uPSIxMC42NjY3Ii8+JiN4YTs8ZmVDb2xvck1hdHJpeCB0eXBlPSJtYXRyaXgiIHZhbHVlcz0iMCAwIDAgMCAwIDAgMCAwIDAgMCAwIDAgMCAwIDAgMCAwIDAgMC4yNSAwIi8+JiN4YTs8ZmVCbGVuZCBtb2RlPSJvdmVybGF5IiBpbjI9IkJhY2tncm91bmRJbWFnZUZpeCIgcmVzdWx0PSJlZmZlY3QxX2Ryb3BTaGFkb3ciLz4mI3hhOzxmZUJsZW5kIG1vZGU9Im5vcm1hbCIgaW49IlNvdXJjZUdyYXBoaWMiIGluMj0iZWZmZWN0MV9kcm9wU2hhZG93IiByZXN1bHQ9InNoYXBlIi8+JiN4YTs8L2ZpbHRlcj4mI3hhOzxsaW5lYXJHcmFkaWVudCBpZD0icGFpbnQwX2xpbmVhciIgeDE9IjEyNy44NDQiIHkxPSIwLjY1OTk4OCIgeDI9IjEyNy44NDQiIHkyPSIyNTUuMzQiIGdyYWRpZW50VW5pdHM9InVzZXJTcGFjZU9uVXNlIj4mI3hhOzxzdG9wIHN0b3AtY29sb3I9IndoaXRlIi8+JiN4YTs8c3RvcCBvZmZzZXQ9IjEiIHN0b3AtY29sb3I9IndoaXRlIiBzdG9wLW9wYWNpdHk9IjAiLz4mI3hhOzwvbGluZWFyR3JhZGllbnQ+JiN4YTs8L2RlZnM+JiN4YTs8L3N2Zz4=;" parent="1" vertex="1">
                    <mxGeometry x="290" y="345" width="50" height="50" as="geometry"/>
                </mxCell>
                <mxCell id="14" value="front-react: Visual Studio Code" style="text;html=1;resizable=0;autosize=1;align=center;verticalAlign=middle;points=[];rounded=0;" parent="1" vertex="1">
                    <mxGeometry x="225" y="400" width="180" height="20" as="geometry"/>
                </mxCell>
                <mxCell id="18" value="front-react: App Service" style="text;html=1;resizable=0;autosize=1;align=center;verticalAlign=middle;points=[];fillColor=none;strokeColor=none;rounded=0;" parent="1" vertex="1">
                    <mxGeometry x="245" y="165" width="140" height="20" as="geometry"/>
                </mxCell>
                <mxCell id="24" style="edgeStyle=orthogonalEdgeStyle;rounded=0;orthogonalLoop=1;jettySize=auto;html=1;exitX=0.5;exitY=0.5;exitDx=0;exitDy=0;exitPerimeter=0;entryX=0;entryY=0.5;entryDx=0;entryDy=0;" parent="1" source="19" target="3" edge="1">
                    <mxGeometry relative="1" as="geometry"/>
                </mxCell>
                <mxCell id="53" value="" style="edgeStyle=orthogonalEdgeStyle;rounded=0;orthogonalLoop=1;jettySize=auto;html=1;" edge="1" parent="1" source="19" target="31">
                    <mxGeometry relative="1" as="geometry"/>
                </mxCell>
                <mxCell id="54" value="" style="edgeStyle=orthogonalEdgeStyle;rounded=0;orthogonalLoop=1;jettySize=auto;html=1;" edge="1" parent="1" source="19" target="31">
                    <mxGeometry relative="1" as="geometry"/>
                </mxCell>
                <mxCell id="19" value="" style="shape=umlActor;verticalLabelPosition=bottom;labelBackgroundColor=#ffffff;verticalAlign=top;html=1;outlineConnect=0;" parent="1" vertex="1">
                    <mxGeometry x="160" y="110" width="30" height="60" as="geometry"/>
                </mxCell>
                <mxCell id="27" style="edgeStyle=orthogonalEdgeStyle;rounded=0;orthogonalLoop=1;jettySize=auto;html=1;exitX=0.5;exitY=0.5;exitDx=0;exitDy=0;exitPerimeter=0;entryX=0;entryY=0.5;entryDx=0;entryDy=0;" parent="1" source="25" target="13" edge="1">
                    <mxGeometry relative="1" as="geometry"/>
                </mxCell>
                <mxCell id="25" value="" style="shape=umlActor;verticalLabelPosition=bottom;labelBackgroundColor=#ffffff;verticalAlign=top;html=1;outlineConnect=0;" parent="1" vertex="1">
                    <mxGeometry x="160" y="340" width="30" height="60" as="geometry"/>
                </mxCell>
                <mxCell id="30" style="edgeStyle=orthogonalEdgeStyle;rounded=0;orthogonalLoop=1;jettySize=auto;html=1;exitX=1;exitY=0.5;exitDx=0;exitDy=0;" parent="1" source="9" edge="1">
                    <mxGeometry relative="1" as="geometry">
                        <mxPoint x="470" y="240" as="sourcePoint"/>
                        <mxPoint x="480" y="195" as="targetPoint"/>
                        <Array as="points">
                            <mxPoint x="480" y="218"/>
                        </Array>
                    </mxGeometry>
                </mxCell>
                <mxCell id="31" value="Authentication" style="text;html=1;resizable=0;autosize=1;align=center;verticalAlign=middle;points=[];fillColor=none;strokeColor=none;rounded=0;" parent="1" vertex="1">
                    <mxGeometry x="200" y="220" width="90" height="20" as="geometry"/>
                </mxCell>
                <mxCell id="34" value="" style="shape=image;verticalLabelPosition=bottom;labelBackgroundColor=#ffffff;verticalAlign=top;aspect=fixed;imageAspect=0;image=data:image/svg+xml,PHN2ZyB4bWxucz0iaHR0cDovL3d3dy53My5vcmcvMjAwMC9zdmciIGlkPSJhMmM4ODMwNi1mYTAzLTRlNWItYjE5Mi00MDFmMGI3NzgwOGIiIHdpZHRoPSIxOCIgaGVpZ2h0PSIxOCIgdmlld0JveD0iMCAwIDE4IDE4Ij4mI3hhOyAgPGRlZnM+JiN4YTsgICAgPGxpbmVhckdyYWRpZW50IGlkPSJiNDAzYWNhNy1mMzg3LTQ0MzQtOTZiNC1hZTE1N2VkYzgzNWYiIHgxPSItMTc1Ljk5MyIgeTE9Ii0zNDMuNzIzIiB4Mj0iLTE3NS45OTMiIHkyPSItMzU5LjIzMiIgZ3JhZGllbnRUcmFuc2Zvcm09InRyYW5zbGF0ZSgyMTIuNTczIDM3MC41NDgpIHNjYWxlKDEuMTU2IDEuMDI5KSIgZ3JhZGllbnRVbml0cz0idXNlclNwYWNlT25Vc2UiPiYjeGE7ICAgICAgPHN0b3Agb2Zmc2V0PSIwIiBzdG9wLWNvbG9yPSIjZmVhMTFiIi8+JiN4YTsgICAgICA8c3RvcCBvZmZzZXQ9IjAuMjg0IiBzdG9wLWNvbG9yPSIjZmVhNTFhIi8+JiN4YTsgICAgICA8c3RvcCBvZmZzZXQ9IjAuNTQ3IiBzdG9wLWNvbG9yPSIjZmViMDE4Ii8+JiN4YTsgICAgICA8c3RvcCBvZmZzZXQ9IjAuOCIgc3RvcC1jb2xvcj0iI2ZmYzMxNCIvPiYjeGE7ICAgICAgPHN0b3Agb2Zmc2V0PSIxIiBzdG9wLWNvbG9yPSIjZmZkNzBmIi8+JiN4YTsgICAgPC9saW5lYXJHcmFkaWVudD4mI3hhOyAgPC9kZWZzPiYjeGE7ICA8dGl0bGU+SWNvbi1jb21wdXRlLTI5PC90aXRsZT4mI3hhOyAgPGc+JiN4YTsgICAgPHBhdGggZD0iTTIuMzcsNy40NzVIMy4yYS4yNjcuMjY3LDAsMCwxLC4yNjcuMjY3djYuMTQ4YS41MzMuNTMzLDAsMCwxLS41MzMuNTMzSDIuMWEwLDAsMCwwLDEsMCwwVjcuNzQxYS4yNjcuMjY3LDAsMCwxLC4yNjctLjI2N1oiIHRyYW5zZm9ybT0idHJhbnNsYXRlKDEyLjUwNyAxNi43MDUpIHJvdGF0ZSgxMzQuOTE5KSIgZmlsbD0iIzUwZTZmZiIvPiYjeGE7ICAgIDxwYXRoIGQ9Ik0yLjMyNSwzLjZoLjgzM2EuMjY3LjI2NywwLDAsMSwuMjY3LjI2N3Y2LjU4M2EwLDAsMCwwLDEsMCwwSDIuNTkxYS41MzMuNTMzLDAsMCwxLS41MzMtLjUzM1YzLjg2NUEuMjY3LjI2NywwLDAsMSwyLjMyNSwzLjZaIiB0cmFuc2Zvcm09InRyYW5zbGF0ZSg1Ljc1OSAwLjExNCkgcm90YXRlKDQ0LjkxOSkiIGZpbGw9IiMxNDkwZGYiLz4mI3hhOyAgPC9nPiYjeGE7ICA8Zz4mI3hhOyAgICA8cGF0aCBkPSJNMTQuNTMsNy40NzVoLjgzM2EuNTMzLjUzMywwLDAsMSwuNTMzLjUzM3Y2LjE0OGEuMjY3LjI2NywwLDAsMS0uMjY3LjI2N0gxNC44YS4yNjcuMjY3LDAsMCwxLS4yNjctLjI2N1Y3LjQ3NWEwLDAsMCwwLDEsMCwwWiIgdHJhbnNmb3JtPSJ0cmFuc2xhdGUoMTIuMjIzIC03LjU1NSkgcm90YXRlKDQ1LjA4MSkiIGZpbGw9IiM1MGU2ZmYiLz4mI3hhOyAgICA8cGF0aCBkPSJNMTUuMTA4LDMuNmguODMzYTAsMCwwLDAsMSwwLDB2Ni41ODNhLjI2Ny4yNjcsMCwwLDEtLjI2Ny4yNjdoLS44MzNhLjI2Ny4yNjcsMCwwLDEtLjI2Ny0uMjY3VjQuMTMxYS41MzMuNTMzLDAsMCwxLC41MzMtLjUzM1oiIHRyYW5zZm9ybT0idHJhbnNsYXRlKDMxLjAyMiAxLjIyMikgcm90YXRlKDEzNS4wODEpIiBmaWxsPSIjMTQ5MGRmIi8+JiN4YTsgIDwvZz4mI3hhOyAgPHBhdGggZD0iTTguNDU5LDkuOUg0Ljg3YS4xOTMuMTkzLDAsMCwxLS4yLS4xODEuMTY2LjE2NiwwLDAsMSwuMDE4LS4wNzVMOC45OTEsMS4xM2EuMjA2LjIwNiwwLDAsMSwuMTg2LS4xMDZoNC4yNDVhLjE5My4xOTMsMCwwLDEsLjIuMTgxLjE2NS4xNjUsMCwwLDEtLjAzNS4xTDguNTM0LDcuOTY2aDQuOTI4YS4xOTMuMTkzLDAsMCwxLC4yLjE4MS4xNzYuMTc2LDAsMCwxLS4wNTIuMTIyTDUuNDIxLDE2Ljc4OGMtLjA3Ny4wNDYtLjYyNC41LS4zNTYtLjE4OWgwWiIgZmlsbD0idXJsKCNiNDAzYWNhNy1mMzg3LTQ0MzQtOTZiNC1hZTE1N2VkYzgzNWYpIi8+JiN4YTs8bWV0YWRhdGE+JiN4YTsgICA8cmRmOlJERiB4bWxuczpyZGY9Imh0dHA6Ly93d3cudzMub3JnLzE5OTkvMDIvMjItcmRmLXN5bnRheC1ucyMiPiYjeGE7ICAgICAgPHJkZjpsaT5wdWJsaWM6dHJ1ZTwvcmRmOmxpPiYjeGE7ICAgICAgPHJkZjpsaT5zZGs6TXNQb3J0YWxGeC5CYXNlLkltYWdlcy5Qb2x5Y2hyb21hdGljLkZ1bmN0aW9ucygpPC9yZGY6bGk+JiN4YTsgICAgICA8cmRmOmxpPmNhdGVnb3J5OiBDb21wdXRlLCBJb1Q8L3JkZjpsaT4mI3hhOyAgIDwvcmRmOlJERj4mI3hhOzwvbWV0YWRhdGE+JiN4YTs8L3N2Zz4=;" parent="1" vertex="1">
                    <mxGeometry x="475" y="225" width="50" height="50" as="geometry"/>
                </mxCell>
                <mxCell id="36" value="Azure Functions" style="text;html=1;resizable=0;autosize=1;align=center;verticalAlign=middle;points=[];fillColor=none;strokeColor=none;rounded=0;" parent="1" vertex="1">
                    <mxGeometry x="450" y="275" width="100" height="20" as="geometry"/>
                </mxCell>
                <mxCell id="37" value="" style="shape=image;verticalLabelPosition=bottom;labelBackgroundColor=#ffffff;verticalAlign=top;aspect=fixed;imageAspect=0;image=data:image/svg+xml,PHN2ZyB4bWxucz0iaHR0cDovL3d3dy53My5vcmcvMjAwMC9zdmciIGlkPSJhZjZhMmM0Mi1iZDQ4LTQ4NTctYTQ3OS1hZWNmOGIzZGU0ZjYiIHdpZHRoPSIxOCIgaGVpZ2h0PSIxOCIgdmlld0JveD0iMCAwIDE4IDE4Ij4mI3hhOyAgICA8ZGVmcz4mI3hhOyAgICAgICAgPGxpbmVhckdyYWRpZW50IGlkPSJiNzBjOWNmMS1iYWI4LTQ3ZTAtYmJkYi1jZTFjZDY2NGQyNjgiIHgxPSIyLjk0IiB5MT0iMy43NCIgeDI9IjguNjciIHkyPSIzLjc0IiBncmFkaWVudFVuaXRzPSJ1c2VyU3BhY2VPblVzZSI+JiN4YTsgICAgICAgICAgICA8c3RvcCBvZmZzZXQ9IjAiIHN0b3AtY29sb3I9IiNiNzdhZjQiLz4mI3hhOyAgICAgICAgICAgIDxzdG9wIG9mZnNldD0iMSIgc3RvcC1jb2xvcj0iIzc3M2FkYyIvPiYjeGE7ICAgICAgICA8L2xpbmVhckdyYWRpZW50PiYjeGE7ICAgICAgICA8bGluZWFyR3JhZGllbnQgaWQ9ImJlYjY5OTUzLWJkOTYtNDUxNS04ODQzLWFjMTI1NDZhZjkzNiIgeDE9IjkuMTMiIHkxPSIzLjc5IiB4Mj0iMTQuODUiIHkyPSIzLjc5IiBncmFkaWVudFVuaXRzPSJ1c2VyU3BhY2VPblVzZSI+JiN4YTsgICAgICAgICA8c3RvcCBvZmZzZXQ9IjAiIHN0b3AtY29sb3I9IiNiNzdhZjQiLz4mI3hhOyAgICAgICAgICAgIDxzdG9wIG9mZnNldD0iMSIgc3RvcC1jb2xvcj0iIzc3M2FkYyIvPiYjeGE7ICAgICAgICAgICAgPC9saW5lYXJHcmFkaWVudD4mI3hhOyAgICAgICAgPGxpbmVhckdyYWRpZW50IGlkPSJhMzljNzZlOC01NDdlLTRlYjQtYmMyNS1kODFjMGY4Y2RhNjIiIHgxPSIwLjAxIiB5MT0iOS4xMiIgeDI9IjUuNzMiIHkyPSI5LjEyIiBncmFkaWVudFVuaXRzPSJ1c2VyU3BhY2VPblVzZSI+JiN4YTsgICAgICAgICA8c3RvcCBvZmZzZXQ9IjAiIHN0b3AtY29sb3I9IiNiNzdhZjQiLz4mI3hhOyAgICAgICAgICAgIDxzdG9wIG9mZnNldD0iMSIgc3RvcC1jb2xvcj0iIzc3M2FkYyIvPiYjeGE7ICAgICAgICAgICAgPC9saW5lYXJHcmFkaWVudD4mI3hhOyAgICAgICAgPGxpbmVhckdyYWRpZW50IGlkPSJmMGEyYTQ5MS0xN2RjLTRiYjgtYmJmYy1lZTU4YTVjZjQ3ZGEiIHgxPSI2LjE4IiB5MT0iOS4wOCIgeDI9IjExLjkiIHkyPSI5LjA4IiBncmFkaWVudFVuaXRzPSJ1c2VyU3BhY2VPblVzZSI+JiN4YTsgICAgICAgICA8c3RvcCBvZmZzZXQ9IjAiIHN0b3AtY29sb3I9IiNiNzdhZjQiLz4mI3hhOyAgICAgICAgICAgIDxzdG9wIG9mZnNldD0iMSIgc3RvcC1jb2xvcj0iIzc3M2FkYyIvPiYjeGE7ICAgICAgICAgICAgPC9saW5lYXJHcmFkaWVudD4mI3hhOyAgICAgICAgPGxpbmVhckdyYWRpZW50IGlkPSJlZmM2YTU2ZC04NTg1LTQxN2QtOTMxYS0xZGFjMjExNGNjZDAiIHgxPSIxMi4zNSIgeTE9IjkuMTMiIHgyPSIxOC4wOCIgeTI9IjkuMTMiIGdyYWRpZW50VW5pdHM9InVzZXJTcGFjZU9uVXNlIj4mI3hhOyAgICAgICAgICYjeGE7ICAgICAgICAgPHN0b3Agb2Zmc2V0PSIwIiBzdG9wLWNvbG9yPSIjYjc3YWY0Ii8+JiN4YTsgICAgICAgICAgICA8c3RvcCBvZmZzZXQ9IjEiIHN0b3AtY29sb3I9IiM3NzNhZGMiLz48L2xpbmVhckdyYWRpZW50PiYjeGE7ICAgICAgICA8bGluZWFyR3JhZGllbnQgaWQ9ImUzOTlhYTkzLTM0MWYtNGRmMi05YzAyLTYwM2I4MmI0ODRjMiIgeDE9IjIuODciIHkxPSIxNC41NiIgeDI9IjguNiIgeTI9IjE0LjU2IiBncmFkaWVudFVuaXRzPSJ1c2VyU3BhY2VPblVzZSI+JiN4YTsgICAgICAgICA8c3RvcCBvZmZzZXQ9IjAiIHN0b3AtY29sb3I9IiNiNzdhZjQiLz4mI3hhOyAgICAgICAgICAgIDxzdG9wIG9mZnNldD0iMSIgc3RvcC1jb2xvcj0iIzc3M2FkYyIvPjwvbGluZWFyR3JhZGllbnQ+JiN4YTsgICAgICAgIDxsaW5lYXJHcmFkaWVudCBpZD0iYTE1MmJiYTAtYmEyYi00ODNhLWI4YzEtMGFlN2RlMzU1OTkwIiB4MT0iOS4wNSIgeTE9IjE0LjYiIHgyPSIxNC43OCIgeTI9IjE0LjYiIGdyYWRpZW50VW5pdHM9InVzZXJTcGFjZU9uVXNlIj4mI3hhOyAgICAgICAgIDxzdG9wIG9mZnNldD0iMCIgc3RvcC1jb2xvcj0iI2I3N2FmNCIvPiYjeGE7ICAgICAgICAgICAgPHN0b3Agb2Zmc2V0PSIxIiBzdG9wLWNvbG9yPSIjNzczYWRjIi8+PC9saW5lYXJHcmFkaWVudD4mI3hhOyAgICA8L2RlZnM+JiN4YTsgICAgPHRpdGxlPkljb24tY29tcHV0ZS0yMzwvdGl0bGU+JiN4YTsgICAgPHBvbHlnb24gcG9pbnRzPSI1LjggMS4yMiAyLjk0IDEuNzUgMi45NCA1LjY1IDUuOCA2LjI2IDguNjcgNS4xMSA4LjY3IDIuMiA1LjggMS4yMiIgZmlsbD0idXJsKCNiNzBjOWNmMS1iYWI4LTQ3ZTAtYmJkYi1jZTFjZDY2NGQyNjgpIi8+JiN4YTsgICAgPHBhdGggZD0iTTUuOTEsNi4yLDguNTMsNS4xNEEuMi4yLDAsMCwwLDguNjUsNVYyLjM2YS4yMS4yMSwwLDAsMC0uMTMtLjE4bC0yLjY1LS45SDUuNzVsLTIuNi40OEEuMi4yLDAsMCwwLDMsMS45NFY1LjQ3YS4xOS4xOSwwLDAsMCwuMTUuMTlsMi42My41NUEuMzIuMzIsMCwwLDAsNS45MSw2LjJaIiBmaWxsPSJub25lIi8+JiN4YTsgICAgPHBhdGggZD0iTTIuOTQsMS43NXYzLjlsMi44OS42MXYtNVptMS4yMiwzLjYtLjgxLS4xNnYtM2wuODEtLjEzWm0xLjI2LjIzLS45My0uMTVWMmwuOTMtLjE2WiIgZmlsbD0iIzM0MWE2ZSIvPiYjeGE7ICAgIDxwb2x5Z29uIHBvaW50cz0iMTEuOTkgMS4yNyA5LjEzIDEuOCA5LjEzIDUuNyAxMS45OSA2LjMxIDE0Ljg1IDUuMTUgMTQuODUgMi4yNSAxMS45OSAxLjI3IiBmaWxsPSJ1cmwoI2JlYjY5OTUzLWJkOTYtNDUxNS04ODQzLWFjMTI1NDZhZjkzNikiLz4mI3hhOyAgICA8cGF0aCBkPSJNOS4xMywxLjhWNS43TDEyLDYuMzF2LTVabTEuMjEsMy42LS44MS0uMTZ2LTNsLjgxLS4xM1ptMS4yNi4yMy0uOTMtLjE1VjIuMDVsLjkzLS4xN1oiIGZpbGw9IiMzNDFhNmUiLz4mI3hhOyAgICA8cG9seWdvbiBwb2ludHM9IjIuODcgNi42IDAuMDEgNy4xMyAwLjAxIDExLjAzIDIuODcgMTEuNjQgNS43NCAxMC40OSA1Ljc0IDcuNTggMi44NyA2LjYiIGZpbGw9InVybCgjYTM5Yzc2ZTgtNTQ3ZS00ZWI0LWJjMjUtZDgxYzBmOGNkYTYyKSIvPiYjeGE7ICAgIDxwYXRoIGQ9Ik0wLDcuMTNWMTFsMi44OS42MXYtNVptMS4yMSwzLjYxLS44MS0uMTd2LTNsLjgxLS4xNFpNMi40OCwxMWwtLjkzLS4xNVY3LjM4bC45My0uMTZaIiBmaWxsPSIjMzQxYTZlIi8+JiN4YTsgICAgPHBvbHlnb24gcG9pbnRzPSI5LjA0IDYuNTYgNi4xOCA3LjA5IDYuMTggMTAuOTkgOS4wNCAxMS42MSAxMS45IDEwLjQ1IDExLjkgNy41NCA5LjA0IDYuNTYiIGZpbGw9InVybCgjZjBhMmE0OTEtMTdkYy00YmI4LWJiZmMtZWU1OGE1Y2Y0N2RhKSIvPiYjeGE7ICAgIDxwYXRoIGQ9Ik02LjE4LDcuMDlWMTFsMi44OC42MXYtNVpNNy4zOSwxMC43bC0uODEtLjE3di0zbC44MS0uMTRabTEuMjYuMjItLjkzLS4xNVY3LjM0bC45My0uMTZaIiBmaWxsPSIjMzQxYTZlIi8+JiN4YTsgICAgPHBvbHlnb24gcG9pbnRzPSIxNS4yMSA2LjYxIDEyLjM1IDcuMTQgMTIuMzUgMTEuMDQgMTUuMjEgMTEuNjUgMTguMDggMTAuNSAxOC4wOCA3LjU5IDE1LjIxIDYuNjEiIGZpbGw9InVybCgjZWZjNmE1NmQtODU4NS00MTdkLTkzMWEtMWRhYzIxMTRjY2QwKSIvPiYjeGE7ICAgIDxwYXRoIGQ9Ik0xMi4zNSw3LjE0VjExbDIuODkuNjF2LTVabTEuMjIsMy42MS0uODEtLjE3di0zbC44MS0uMTRabTEuMjYuMjItLjkzLS4xNVY3LjM5bC45My0uMTZaIiBmaWxsPSIjMzQxYTZlIi8+JiN4YTsgICAgPHBvbHlnb24gcG9pbnRzPSI1LjczIDEyLjA0IDIuODcgMTIuNTYgMi44NyAxNi40NiA1LjczIDE3LjA4IDguNiAxNS45MiA4LjYgMTMuMDIgNS43MyAxMi4wNCIgZmlsbD0idXJsKCNlMzk5YWE5My0zNDFmLTRkZjItOWMwMi02MDNiODJiNDg0YzIpIi8+JiN4YTsgICAgPHBhdGggZD0iTTUuODQsMTcsOC40NSwxNmEuMTguMTgsMCwwLDAsLjEyLS4xOHYtMi42QS4yLjIsMCwwLDAsOC40NCwxM0w1LjgsMTIuMWEuMTcuMTcsMCwwLDAtLjEyLDBsLTIuNi40N2EuMTkuMTksMCwwLDAtLjE2LjE5djMuNTRhLjE5LjE5LDAsMCwwLC4xNS4xOUw1LjcsMTdBLjIzLjIzLDAsMCwwLDUuODQsMTdaIiBmaWxsPSJub25lIi8+JiN4YTsgICAgPHBhdGggZD0iTTIuODcsMTIuNTZ2My45bDIuODkuNjJWMTJabTEuMjIsMy42MUwzLjI4LDE2VjEzbC44MS0uMTRabTEuMjYuMjMtLjkzLS4xNVYxMi44MWwuOTMtLjE2WiIgZmlsbD0iIzM0MWE2ZSIvPiYjeGE7ICAgIDxwb2x5Z29uIHBvaW50cz0iMTEuOTEgMTIuMDggOS4wNSAxMi42MSA5LjA1IDE2LjUxIDExLjkxIDE3LjEyIDE0Ljc4IDE1Ljk3IDE0Ljc4IDEzLjA2IDExLjkxIDEyLjA4IiBmaWxsPSJ1cmwoI2ExNTJiYmEwLWJhMmItNDgzYS1iOGMxLTBhZTdkZTM1NTk5MCkiLz4mI3hhOyAgICA8cGF0aCBkPSJNOS4wNSwxMi42MXYzLjlsMi44OS42MXYtNVptMS4yMiwzLjYxLS44MS0uMTd2LTNsLjgxLS4xNFptMS4yNi4yMi0uOTMtLjE1VjEyLjg2bC45My0uMTZaIiBmaWxsPSIjMzQxYTZlIi8+JiN4YTs8bWV0YWRhdGE+JiN4YTsgICA8cmRmOlJERiB4bWxuczpyZGY9Imh0dHA6Ly93d3cudzMub3JnLzE5OTkvMDIvMjItcmRmLXN5bnRheC1ucyMiPiYjeGE7ICAgICAgPHJkZjpsaT5wdWJsaWM6dHJ1ZTwvcmRmOmxpPiYjeGE7ICAgICAgPHJkZjpsaT5zZGs6ZmFsc2U8L3JkZjpsaT4mI3hhOyAgICAgIDxyZGY6bGk+Y2F0ZWdvcnk6IENvbnRhaW5lcnMsIENvbXB1dGU8L3JkZjpsaT4mI3hhOyAgIDwvcmRmOlJERj4mI3hhOzwvbWV0YWRhdGE+JiN4YTs8L3N2Zz4=;direction=east;" parent="1" vertex="1">
                    <mxGeometry x="645" y="120" width="50" height="50" as="geometry"/>
                </mxCell>
                <mxCell id="38" value="AKS (Azure Kubernetes Service)&lt;br&gt;[now not used]" style="text;html=1;resizable=0;autosize=1;align=center;verticalAlign=middle;points=[];fillColor=none;strokeColor=none;rounded=0;" parent="1" vertex="1">
                    <mxGeometry x="575" y="170" width="190" height="30" as="geometry"/>
                </mxCell>
                <mxCell id="42" style="edgeStyle=orthogonalEdgeStyle;rounded=0;orthogonalLoop=1;jettySize=auto;html=1;exitX=0.5;exitY=0;exitDx=0;exitDy=0;entryX=0.5;entryY=1;entryDx=0;entryDy=0;entryPerimeter=0;" parent="1" source="40" target="36" edge="1">
                    <mxGeometry relative="1" as="geometry"/>
                </mxCell>
                <mxCell id="40" value="" style="shape=image;verticalLabelPosition=bottom;labelBackgroundColor=#ffffff;verticalAlign=top;aspect=fixed;imageAspect=0;image=data:image/svg+xml,PHN2ZyB4bWxucz0iaHR0cDovL3d3dy53My5vcmcvMjAwMC9zdmciIHZpZXdCb3g9IjAgMCAyNTYgMjU2IiBmaWxsPSJub25lIj4mI3hhOzxtYXNrIGlkPSJtYXNrMCIgbWFzay10eXBlPSJhbHBoYSIgbWFza1VuaXRzPSJ1c2VyU3BhY2VPblVzZSIgeD0iMCIgeT0iMCIgd2lkdGg9IjI1NiIgaGVpZ2h0PSIyNTYiPiYjeGE7PHBhdGggZmlsbC1ydWxlPSJldmVub2RkIiBjbGlwLXJ1bGU9ImV2ZW5vZGQiIGQ9Ik0xODEuNTM0IDI1NC4yNTJDMTg1LjU2NiAyNTUuODIzIDE5MC4xNjQgMjU1LjcyMiAxOTQuMjM0IDI1My43NjRMMjQ2Ljk0IDIyOC40MDNDMjUyLjQ3OCAyMjUuNzM4IDI1NiAyMjAuMTMyIDI1NiAyMTMuOTgzVjQyLjAxODFDMjU2IDM1Ljg2ODkgMjUyLjQ3OCAzMC4yNjM4IDI0Ni45NCAyNy41OTg4TDE5NC4yMzQgMi4yMzY4MUMxODguODkzIC0wLjMzMzEzMiAxODIuNjQyIDAuMjk2MzQ0IDE3Ny45NTUgMy43MDQxOEMxNzcuMjg1IDQuMTkxIDE3Ni42NDcgNC43MzQ1NCAxNzYuMDQ5IDUuMzMzNTRMNzUuMTQ5IDk3LjM4NjJMMzEuMTk5MiA2NC4wMjQ3QzI3LjEwNzkgNjAuOTE5MSAyMS4zODUzIDYxLjE3MzUgMTcuNTg1NSA2NC42M0wzLjQ4OTM2IDc3LjQ1MjVDLTEuMTU4NTMgODEuNjgwNSAtMS4xNjM4NiA4OC45OTI2IDMuNDc3ODUgOTMuMjI3NEw0MS41OTI2IDEyOEwzLjQ3Nzg1IDE2Mi43NzNDLTEuMTYzODYgMTY3LjAwOCAtMS4xNTg1MyAxNzQuMzIgMy40ODkzNiAxNzguNTQ4TDE3LjU4NTUgMTkxLjM3QzIxLjM4NTMgMTk0LjgyNyAyNy4xMDc5IDE5NS4wODEgMzEuMTk5MiAxOTEuOTc2TDc1LjE0OSAxNTguNjE0TDE3Ni4wNDkgMjUwLjY2N0MxNzcuNjQ1IDI1Mi4yNjQgMTc5LjUxOSAyNTMuNDY3IDE4MS41MzQgMjU0LjI1MlpNMTkyLjAzOSA2OS44ODUzTDExNS40NzkgMTI4TDE5Mi4wMzkgMTg2LjExNVY2OS44ODUzWiIgZmlsbD0id2hpdGUiLz4mI3hhOzwvbWFzaz4mI3hhOzxnIG1hc2s9InVybCgjbWFzazApIj4mI3hhOzxwYXRoIGQ9Ik0yNDYuOTQgMjcuNjM4M0wxOTQuMTkzIDIuMjQxMzhDMTg4LjA4OCAtMC42OTgzMDIgMTgwLjc5MSAwLjU0MTcyMSAxNzUuOTk5IDUuMzMzMzJMMy4zMjM3MSAxNjIuNzczQy0xLjMyMDgyIDE2Ny4wMDggLTEuMzE1NDggMTc0LjMyIDMuMzM1MjMgMTc4LjU0OEwxNy40Mzk5IDE5MS4zN0MyMS4yNDIxIDE5NC44MjcgMjYuOTY4MiAxOTUuMDgxIDMxLjA2MTkgMTkxLjk3NkwyMzkuMDAzIDM0LjIyNjlDMjQ1Ljk3OSAyOC45MzQ3IDI1NS45OTkgMzMuOTEwMyAyNTUuOTk5IDQyLjY2NjdWNDIuMDU0M0MyNTUuOTk5IDM1LjkwNzggMjUyLjQ3OCAzMC4zMDQ3IDI0Ni45NCAyNy42MzgzWiIgZmlsbD0iIzAwNjVBOSIvPiYjeGE7PGcgZmlsdGVyPSJ1cmwoI2ZpbHRlcjBfZCkiPiYjeGE7PHBhdGggZD0iTTI0Ni45NCAyMjguMzYyTDE5NC4xOTMgMjUzLjc1OUMxODguMDg4IDI1Ni42OTggMTgwLjc5MSAyNTUuNDU4IDE3NS45OTkgMjUwLjY2N0wzLjMyMzcxIDkzLjIyNzJDLTEuMzIwODIgODguOTkyNSAtMS4zMTU0OCA4MS42ODAyIDMuMzM1MjMgNzcuNDUyM0wxNy40Mzk5IDY0LjYyOThDMjEuMjQyMSA2MS4xNzMzIDI2Ljk2ODIgNjAuOTE4OCAzMS4wNjE5IDY0LjAyNDVMMjM5LjAwMyAyMjEuNzczQzI0NS45NzkgMjI3LjA2NSAyNTUuOTk5IDIyMi4wOSAyNTUuOTk5IDIxMy4zMzNWMjEzLjk0NkMyNTUuOTk5IDIyMC4wOTIgMjUyLjQ3OCAyMjUuNjk1IDI0Ni45NCAyMjguMzYyWiIgZmlsbD0iIzAwN0FDQyIvPiYjeGE7PC9nPiYjeGE7PGcgZmlsdGVyPSJ1cmwoI2ZpbHRlcjFfZCkiPiYjeGE7PHBhdGggZD0iTTE5NC4xOTYgMjUzLjc2M0MxODguMDg5IDI1Ni43IDE4MC43OTIgMjU1LjQ1OSAxNzYgMjUwLjY2N0MxODEuOTA0IDI1Ni41NzEgMTkyIDI1Mi4zODkgMTkyIDI0NC4wMzlWMTEuOTYwNkMxOTIgMy42MTA1NyAxODEuOTA0IC0wLjU3MTE3NSAxNzYgNS4zMzMyMUMxODAuNzkyIDAuNTQxMTY2IDE4OC4wODkgLTAuNzAwNjA3IDE5NC4xOTYgMi4yMzY0OEwyNDYuOTM0IDI3LjU5ODVDMjUyLjQ3NiAzMC4yNjM1IDI1NiAzNS44Njg2IDI1NiA0Mi4wMTc4VjIxMy45ODNDMjU2IDIyMC4xMzIgMjUyLjQ3NiAyMjUuNzM3IDI0Ni45MzQgMjI4LjQwMkwxOTQuMTk2IDI1My43NjNaIiBmaWxsPSIjMUY5Q0YwIi8+JiN4YTs8L2c+JiN4YTs8ZyBzdHlsZT0ibWl4LWJsZW5kLW1vZGU6b3ZlcmxheSIgb3BhY2l0eT0iMC4yNSI+JiN4YTs8cGF0aCBmaWxsLXJ1bGU9ImV2ZW5vZGQiIGNsaXAtcnVsZT0iZXZlbm9kZCIgZD0iTTE4MS4zNzggMjU0LjI1MkMxODUuNDEgMjU1LjgyMiAxOTAuMDA4IDI1NS43MjIgMTk0LjA3NyAyNTMuNzY0TDI0Ni43ODMgMjI4LjQwMkMyNTIuMzIyIDIyNS43MzcgMjU1Ljg0NCAyMjAuMTMyIDI1NS44NDQgMjEzLjk4M1Y0Mi4wMTc5QzI1NS44NDQgMzUuODY4NyAyNTIuMzIyIDMwLjI2MzYgMjQ2Ljc4NCAyNy41OTg2TDE5NC4wNzcgMi4yMzY2NUMxODguNzM3IC0wLjMzMzI5OSAxODIuNDg2IDAuMjk2MTc3IDE3Ny43OTggMy43MDQwMUMxNzcuMTI5IDQuMTkwODMgMTc2LjQ5MSA0LjczNDM3IDE3NS44OTIgNS4zMzMzN0w3NC45OTI3IDk3LjM4NkwzMS4wNDI5IDY0LjAyNDVDMjYuOTUxNyA2MC45MTg5IDIxLjIyOSA2MS4xNzM0IDE3LjQyOTIgNjQuNjI5OEwzLjMzMzExIDc3LjQ1MjNDLTEuMzE0NzggODEuNjgwMyAtMS4zMjAxMSA4OC45OTI1IDMuMzIxNiA5My4yMjczTDQxLjQzNjQgMTI4TDMuMzIxNiAxNjIuNzczQy0xLjMyMDExIDE2Ny4wMDggLTEuMzE0NzggMTc0LjMyIDMuMzMzMTEgMTc4LjU0OEwxNy40MjkyIDE5MS4zN0MyMS4yMjkgMTk0LjgyNyAyNi45NTE3IDE5NS4wODEgMzEuMDQyOSAxOTEuOTc2TDc0Ljk5MjcgMTU4LjYxNEwxNzUuODkyIDI1MC42NjdDMTc3LjQ4OCAyNTIuMjY0IDE3OS4zNjMgMjUzLjQ2NyAxODEuMzc4IDI1NC4yNTJaTTE5MS44ODMgNjkuODg1MUwxMTUuMzIzIDEyOEwxOTEuODgzIDE4Ni4xMTVWNjkuODg1MVoiIGZpbGw9InVybCgjcGFpbnQwX2xpbmVhcikiLz4mI3hhOzwvZz4mI3hhOzwvZz4mI3hhOzxkZWZzPiYjeGE7PGZpbHRlciBpZD0iZmlsdGVyMF9kIiB4PSItMjEuNDg5NiIgeT0iNDAuNTIyNSIgd2lkdGg9IjI5OC44MjIiIGhlaWdodD0iMjM2LjE0OSIgZmlsdGVyVW5pdHM9InVzZXJTcGFjZU9uVXNlIiBjb2xvci1pbnRlcnBvbGF0aW9uLWZpbHRlcnM9InNSR0IiPiYjeGE7PGZlRmxvb2QgZmxvb2Qtb3BhY2l0eT0iMCIgcmVzdWx0PSJCYWNrZ3JvdW5kSW1hZ2VGaXgiLz4mI3hhOzxmZUNvbG9yTWF0cml4IGluPSJTb3VyY2VBbHBoYSIgdHlwZT0ibWF0cml4IiB2YWx1ZXM9IjAgMCAwIDAgMCAwIDAgMCAwIDAgMCAwIDAgMCAwIDAgMCAwIDEyNyAwIi8+JiN4YTs8ZmVPZmZzZXQvPiYjeGE7PGZlR2F1c3NpYW5CbHVyIHN0ZERldmlhdGlvbj0iMTAuNjY2NyIvPiYjeGE7PGZlQ29sb3JNYXRyaXggdHlwZT0ibWF0cml4IiB2YWx1ZXM9IjAgMCAwIDAgMCAwIDAgMCAwIDAgMCAwIDAgMCAwIDAgMCAwIDAuMjUgMCIvPiYjeGE7PGZlQmxlbmQgbW9kZT0ib3ZlcmxheSIgaW4yPSJCYWNrZ3JvdW5kSW1hZ2VGaXgiIHJlc3VsdD0iZWZmZWN0MV9kcm9wU2hhZG93Ii8+JiN4YTs8ZmVCbGVuZCBtb2RlPSJub3JtYWwiIGluPSJTb3VyY2VHcmFwaGljIiBpbjI9ImVmZmVjdDFfZHJvcFNoYWRvdyIgcmVzdWx0PSJzaGFwZSIvPiYjeGE7PC9maWx0ZXI+JiN4YTs8ZmlsdGVyIGlkPSJmaWx0ZXIxX2QiIHg9IjE1NC42NjciIHk9Ii0yMC42NzM1IiB3aWR0aD0iMTIyLjY2NyIgaGVpZ2h0PSIyOTcuMzQ3IiBmaWx0ZXJVbml0cz0idXNlclNwYWNlT25Vc2UiIGNvbG9yLWludGVycG9sYXRpb24tZmlsdGVycz0ic1JHQiI+JiN4YTs8ZmVGbG9vZCBmbG9vZC1vcGFjaXR5PSIwIiByZXN1bHQ9IkJhY2tncm91bmRJbWFnZUZpeCIvPiYjeGE7PGZlQ29sb3JNYXRyaXggaW49IlNvdXJjZUFscGhhIiB0eXBlPSJtYXRyaXgiIHZhbHVlcz0iMCAwIDAgMCAwIDAgMCAwIDAgMCAwIDAgMCAwIDAgMCAwIDAgMTI3IDAiLz4mI3hhOzxmZU9mZnNldC8+JiN4YTs8ZmVHYXVzc2lhbkJsdXIgc3RkRGV2aWF0aW9uPSIxMC42NjY3Ii8+JiN4YTs8ZmVDb2xvck1hdHJpeCB0eXBlPSJtYXRyaXgiIHZhbHVlcz0iMCAwIDAgMCAwIDAgMCAwIDAgMCAwIDAgMCAwIDAgMCAwIDAgMC4yNSAwIi8+JiN4YTs8ZmVCbGVuZCBtb2RlPSJvdmVybGF5IiBpbjI9IkJhY2tncm91bmRJbWFnZUZpeCIgcmVzdWx0PSJlZmZlY3QxX2Ryb3BTaGFkb3ciLz4mI3hhOzxmZUJsZW5kIG1vZGU9Im5vcm1hbCIgaW49IlNvdXJjZUdyYXBoaWMiIGluMj0iZWZmZWN0MV9kcm9wU2hhZG93IiByZXN1bHQ9InNoYXBlIi8+JiN4YTs8L2ZpbHRlcj4mI3hhOzxsaW5lYXJHcmFkaWVudCBpZD0icGFpbnQwX2xpbmVhciIgeDE9IjEyNy44NDQiIHkxPSIwLjY1OTk4OCIgeDI9IjEyNy44NDQiIHkyPSIyNTUuMzQiIGdyYWRpZW50VW5pdHM9InVzZXJTcGFjZU9uVXNlIj4mI3hhOzxzdG9wIHN0b3AtY29sb3I9IndoaXRlIi8+JiN4YTs8c3RvcCBvZmZzZXQ9IjEiIHN0b3AtY29sb3I9IndoaXRlIiBzdG9wLW9wYWNpdHk9IjAiLz4mI3hhOzwvbGluZWFyR3JhZGllbnQ+JiN4YTs8L2RlZnM+JiN4YTs8L3N2Zz4=;" parent="1" vertex="1">
                    <mxGeometry x="475" y="345" width="50" height="50" as="geometry"/>
                </mxCell>
                <mxCell id="41" value="back-azure: Visual Studio Code" style="text;html=1;resizable=0;autosize=1;align=center;verticalAlign=middle;points=[];fillColor=none;strokeColor=none;rounded=0;" parent="1" vertex="1">
                    <mxGeometry x="411" y="400" width="180" height="20" as="geometry"/>
                </mxCell>
                <mxCell id="45" value="Node.js + React + Bootstrap4" style="text;html=1;align=center;verticalAlign=middle;resizable=0;points=[];autosize=1;fillColor=#60a917;strokeColor=#2D7600;fontColor=#ffffff;" vertex="1" parent="1">
                    <mxGeometry x="230" y="425" width="170" height="20" as="geometry"/>
                </mxCell>
                <mxCell id="46" value="C#" style="text;html=1;align=center;verticalAlign=middle;resizable=0;points=[];autosize=1;fillColor=#60a917;strokeColor=#2D7600;fontColor=#ffffff;" vertex="1" parent="1">
                    <mxGeometry x="485" y="425" width="30" height="20" as="geometry"/>
                </mxCell>
                <mxCell id="50" value="" style="shape=image;verticalLabelPosition=bottom;labelBackgroundColor=#ffffff;verticalAlign=top;aspect=fixed;imageAspect=0;image=data:image/svg+xml,PHN2ZyB4bWxucz0iaHR0cDovL3d3dy53My5vcmcvMjAwMC9zdmciIHhtbG5zOnhsaW5rPSJodHRwOi8vd3d3LnczLm9yZy8xOTk5L3hsaW5rIiB2ZXJzaW9uPSIxLjEiIGlkPSJMYXllcl8xIiB4PSIwcHgiIHk9IjBweCIgdmlld0JveD0iMjggNjYgMTI3LjUgMTI3LjkiIHN0eWxlPSJlbmFibGUtYmFja2dyb3VuZDpuZXcgMCAwIDc5MiAyMzAuNzsiIHhtbDpzcGFjZT0icHJlc2VydmUiPiYjeGE7PHN0eWxlIHR5cGU9InRleHQvY3NzIj4mI3hhOwkuc3Qwe2ZpbGw6I0ZGRkZGRjt9JiN4YTsJLnN0MXtmaWxsOiMyNDM3NDY7fSYjeGE7CS5zdDJ7ZmlsbDojOTlFMUY0O30mI3hhOwkuc3Qze2ZpbGw6IzFBODJFMjt9JiN4YTsJLnN0NHtmaWxsOiMwMEIyRTM7fSYjeGE7CS5zdDV7ZmlsbDojMDA5REQ5O30mI3hhOwkuc3Q2e29wYWNpdHk6MC4zNTtmaWxsOiNGRkZGRkY7fSYjeGE7CS5zdDd7b3BhY2l0eTowLjc1O2ZpbGw6I0ZGRkZGRjt9JiN4YTs8L3N0eWxlPiYjeGE7PGc+JiN4YTsJPHJlY3QgeD0iNzAuNiIgeT0iMTUxLjUiIGNsYXNzPSJzdDIiIHdpZHRoPSI0Mi40IiBoZWlnaHQ9IjQyLjQiLz4mI3hhOwk8cG9seWdvbiBjbGFzcz0ic3QyIiBwb2ludHM9IjcwLjYsMTA5IDcwLjYsMTA5IDcwLjYsMTA5IDI4LjIsMTA5IDI4LjIsMTUxLjUgNzAuNiwxNTEuNSAgIi8+JiN4YTsJPHJlY3QgeD0iMjguMiIgeT0iMTUxLjUiIGNsYXNzPSJzdDMiIHdpZHRoPSI0Mi40IiBoZWlnaHQ9IjQyLjQiLz4mI3hhOwk8cG9seWdvbiBjbGFzcz0ic3Q0IiBwb2ludHM9IjE1NS41LDEwOSAxNTUuNSwxMDkgMTEzLjEsMTA5IDExMy4xLDE1MS41IDE1NS41LDE1MS41IDE1NS41LDEwOSAgIi8+JiN4YTsJPHJlY3QgeD0iNzAuNiIgeT0iNjYuNiIgY2xhc3M9InN0NCIgd2lkdGg9IjQyLjQiIGhlaWdodD0iNDIuNCIvPiYjeGE7CTxwb2x5Z29uIGNsYXNzPSJzdDUiIHBvaW50cz0iNzAuNiwxMDkgNzAuNiwxNTEuNSAxMTMuMSwxNTEuNSAxMTMuMSwxMDkgMTEzLjEsMTA5ICAiLz4mI3hhOwk8cmVjdCB4PSIxMTMuMSIgeT0iNjYuNiIgY2xhc3M9InN0MyIgd2lkdGg9IjQyLjQiIGhlaWdodD0iNDIuNCIvPiYjeGE7PC9nPiYjeGE7PC9zdmc+;" vertex="1" parent="1">
                    <mxGeometry x="609" y="308" width="42" height="42" as="geometry"/>
                </mxCell>
                <mxCell id="51" value="SendGrid&lt;br&gt;(Mail)" style="text;html=1;align=center;verticalAlign=middle;resizable=0;points=[];autosize=1;" vertex="1" parent="1">
                    <mxGeometry x="595" y="355" width="70" height="30" as="geometry"/>
                </mxCell>
                <mxCell id="52" style="edgeStyle=orthogonalEdgeStyle;rounded=0;orthogonalLoop=1;jettySize=auto;html=1;exitX=1;exitY=0.75;exitDx=0;exitDy=0;entryX=0;entryY=0.5;entryDx=0;entryDy=0;" edge="1" parent="1" source="34" target="50">
                    <mxGeometry relative="1" as="geometry">
                        <mxPoint x="535" y="260" as="sourcePoint"/>
                        <mxPoint x="616" y="260" as="targetPoint"/>
                    </mxGeometry>
                </mxCell>
                <mxCell id="56" value="User" style="text;html=1;resizable=0;autosize=1;align=center;verticalAlign=middle;points=[];fillColor=none;strokeColor=none;rounded=0;" vertex="1" parent="1">
                    <mxGeometry x="155" y="170" width="40" height="20" as="geometry"/>
                </mxCell>
                <mxCell id="57" value="Developer" style="text;html=1;resizable=0;autosize=1;align=center;verticalAlign=middle;points=[];fillColor=none;strokeColor=none;rounded=0;" vertex="1" parent="1">
                    <mxGeometry x="140" y="400" width="70" height="20" as="geometry"/>
                </mxCell>
            </root>
        </mxGraphModel>
    </diagram>
</mxfile>